<?xml version="1.0" encoding="UTF-8"?>
<svg width="87px" height="87px" viewBox="0 0 87 87" version="1.1" xmlns="http://www.w3.org/2000/svg" xmlns:xlink="http://www.w3.org/1999/xlink">
    <!-- Generator: Sketch 54.1 (76490) - https://sketchapp.com -->
    <title>Group 5</title>
    <desc>Created with Sketch.</desc>
    <defs>
        <linearGradient x1="0%" y1="-8.09892121%" x2="123.65797%" y2="112.569462%" id="linearGradient-1">
            <stop stop-color="#FFCD2C" offset="0%"></stop>
            <stop stop-color="#FF0663" offset="100%"></stop>
        </linearGradient>
    </defs>
    <g id="Page-1" stroke="none" stroke-width="1" fill="none" fill-rule="evenodd">
        <g id="Desktop-HD-Copy" transform="translate(-265.000000, -1097.000000)">
            <g id="Group-5" transform="translate(265.000000, 1097.000000)">
                <circle id="Oval-Copy-2" fill="#FFF2D8" cx="43.5" cy="43.5" r="43.5"></circle>
                <path d="M63.0392742,33.0650445 C64.219877,33.0182411 65.2637508,33.6219524 65.5761242,35.1233427 C65.8911269,36.6394577 65.1906534,37.9862389 64.0894586,38.891806 C64.0631645,39.0769161 63.9958517,39.2615004 63.8812097,39.439774 C64.4838693,45.7782178 62.9041228,52.3175481 58.3852273,56.9978891 C58.1091397,57.2839684 57.8241122,57.55953 57.5338259,57.829307 C60.6596626,59.7019692 58.9400317,62.5638137 55.7763316,64.2140283 C50.3729042,67.0327505 44.6097743,66.7613959 38.6851988,66.5889069 C35.8096815,66.5052918 32.316254,65.7900937 29.7673087,64.440683 C27.4976063,63.2390449 27.8373254,61.665083 29.2387983,60.631201 C28.497832,60.1736845 27.7805303,59.6740976 27.0979367,59.119819 C21.8007373,54.8191641 19.3122684,48.4575815 18.7890168,41.7852033 C18.770611,41.5501345 18.8095262,41.3513515 18.8836754,41.1820178 C17.7972052,36.5421697 23.1038705,33.3006392 27.3303761,34.5059584 C27.5428321,33.7855014 27.9435534,33.2059806 28.4662791,32.7437312 C26.7250871,30.9657275 24.9717998,29.2019226 23.030773,27.6395301 C21.7097599,26.5756728 23.5829481,24.727727 24.8902883,25.7800149 C27.0590215,27.5259398 28.9758578,29.5463746 30.9126776,31.5463001 C31.5537265,31.3932687 32.2331648,31.3180678 32.9178618,31.308076 C33.4610969,28.5587701 36.0026798,27.2640511 38.4969334,28.5398384 C41.1762972,26.1828397 44.7196834,27.0894586 46.184262,30.3678008 C47.8092343,29.9765453 49.6135321,29.9938994 50.6679235,30.9347005 C52.3323369,29.3092023 54.5268383,28.3063472 56.6755881,29.4333102 C57.3781651,27.335045 58.0207917,25.2157445 58.8033027,23.2053015 C59.4112211,21.642909 61.9543817,22.3218214 61.338575,23.9041973 C60.6649214,25.6343458 60.0817194,27.4170824 59.4843186,29.1950861 C61.3028151,29.4543455 62.6464411,31.0404026 63.0392742,33.0650445 Z M53.9268081,62.2162063 C54.5189501,61.9075142 57.5858881,60.5949152 55.8646796,59.8812947 C55.677466,59.8034643 55.5239087,59.6967104 55.3998008,59.5720766 C51.8537852,62.1252289 47.5862608,63.6387145 43.2061979,63.9332078 C39.4266911,64.1872084 35.581975,63.5940146 32.1101086,62.116289 C31.9875783,62.2072664 31.8455905,62.2850968 31.6720497,62.3350555 C31.6320828,62.3450472 31.5931676,62.3587201 31.5532006,62.3692377 C32.3814632,62.6779299 33.2249763,62.9419221 34.0832142,63.1528004 C35.599855,63.5256501 37.1264875,63.8490669 38.6851988,63.9600278 C42.3732024,64.2224424 46.2552559,64.4049231 49.8933008,63.6029546 C51.3131795,63.2895295 52.6357702,62.8898599 53.9268081,62.2162063 Z M56.8133689,54.8275782 C60.0159843,51.2021545 61.3554032,46.705346 61.3748608,42.0323674 C56.4804863,46.0827029 49.51677,47.1576037 43.2892871,47.094498 C35.9805928,47.0203488 28.6729503,45.7445614 21.6456024,43.7477912 C22.4470451,49.1222951 24.8355966,54.3616476 29.3807862,57.5779359 C33.5157885,60.5034119 38.5894885,61.789191 43.6295321,61.267517 C48.5775465,60.7553089 53.4840163,58.5960415 56.8133689,54.8275782 Z M63.0071954,35.8322303 C62.9887896,35.3605151 63.2180737,35.4883041 62.487625,35.9084831 C61.3895855,36.5395403 60.4040845,35.5098653 60.5565899,34.423921 C60.7800894,32.8326051 59.959715,31.5037037 58.6350207,31.657261 C57.4333826,35.0002866 56.0066675,38.2318254 53.6386253,40.9621995 C52.5253352,42.2453492 50.6737082,40.376894 51.7791101,39.1026843 C53.6281077,36.9707627 54.8392116,34.4517927 55.8310232,31.8192324 C54.0535454,31.0046427 52.3575792,32.5349564 51.3899581,34.034769 C50.7105198,35.0875828 48.8951786,34.7362943 48.9398785,33.3711072 C48.990889,31.8160771 46.4603495,32.9425142 45.6957186,33.2364817 C45.0404708,33.4883787 44.235347,32.9646012 44.0786345,32.3182934 C43.5332959,30.0675227 41.5465174,28.6160911 39.8205759,30.879483 C39.2836514,31.5841635 38.4553888,31.7435055 37.7559671,31.1455788 C36.227231,29.8392904 35.3826661,31.0998271 35.4426166,32.6701078 C35.4678588,33.3353473 34.8231287,34.052649 34.127914,33.9848103 C33.8518265,33.9574645 33.5646955,33.9359034 33.2765127,33.9232823 C34.318283,34.9313962 35.3926579,35.904276 36.5443373,36.7935408 C37.8658762,37.81375 36.5590619,40.0997547 35.2170136,39.0637691 C33.4679334,37.7138326 31.8797727,36.1940365 30.3294755,34.6347993 C29.9282283,35.0334171 29.7178759,35.6318697 29.8330439,36.5263933 C29.9571518,37.4903331 28.6135258,38.2034278 27.8546795,37.6617703 C25.2357921,35.7933151 20.5696499,37.5045319 21.5682979,40.9858642 C28.1733634,42.9200545 35.0766034,44.292604 41.9677481,44.4440577 C48.4765773,44.5870973 55.8489032,43.8508639 60.658085,39.1363407 C60.3925151,38.4737306 60.5881428,37.6112858 61.4742523,37.3620182 C62.1626305,37.1679681 63.0403259,36.6962528 63.0071954,35.8322303 Z M50.833576,57.4391033 C49.5583146,58.5429275 47.6898593,56.6913005 48.9745866,55.579588 C51.0197379,53.8094726 52.3496909,51.5055879 53.6770146,49.1843491 C54.5184242,47.7134599 56.7902302,49.0371024 55.9472429,50.5116728 C54.5157948,53.0148664 53.0385951,55.5306811 50.833576,57.4391033 Z M43.5932463,35.9126901 C42.0156033,35.9126901 42.0156033,38.5420952 43.5932463,38.5420952 C43.5932463,38.5420952 45.1708893,35.9126901 43.5932463,35.9126901 Z M42.8044248,41.1715002 C43.5212006,41.1715002 44.1191273,41.7694269 44.1191273,42.4862027 C44.1191273,42.6034742 44.1191273,42.7202198 44.1191273,42.8369653 C44.1191273,43.5537412 43.5212006,44.1516679 42.8044248,44.1516679 C42.087649,44.1516679 41.4897223,43.5537412 41.4897223,42.8369653 C41.4897223,42.7196939 41.4897223,42.6029483 41.4897223,42.4862027 C41.4897223,41.7694269 42.087649,41.1715002 42.8044248,41.1715002 Z M30.2711027,38.980154 C30.9873527,38.980154 31.5858052,39.5780807 31.5858052,40.2948566 C31.5858052,41.0116324 30.9878785,41.6095591 30.2711027,41.6095591 C30.1538313,41.6095591 30.0370857,41.6095591 29.9203401,41.6095591 C29.2035643,41.6095591 28.6056376,41.0116324 28.6056376,40.2948566 C28.6056376,39.5780807 29.2035643,38.980154 29.9203401,38.980154 C30.0376116,38.980154 30.1543571,38.980154 30.2711027,38.980154 Z M49.6408779,34.8609281 C50.3576537,34.8609281 50.9555804,35.4588548 50.9555804,36.1756306 C50.9555804,36.2929021 50.9555804,36.4096477 50.9555804,36.5263933 C50.9555804,37.2431691 50.3576537,37.8410958 49.6408779,37.8410958 C48.9241021,37.8410958 48.3261754,37.2431691 48.3261754,36.5263933 C48.3261754,36.4091218 48.3261754,36.2923762 48.3261754,36.1756306 C48.3261754,35.4588548 48.9241021,34.8609281 49.6408779,34.8609281 Z M57.7920335,36.9644521 C55.6885095,36.9644521 55.6885095,39.5938572 57.7920335,39.5938572 C57.7920335,39.5938572 59.3696765,36.9644521 57.7920335,36.9644521 Z" id="Combined-Shape" fill="url(#linearGradient-1)" fill-rule="nonzero"></path>
            </g>
        </g>
    </g>
</svg>