<?xml version="1.0" encoding="UTF-8"?>
<svg width="87px" height="87px" viewBox="0 0 87 87" version="1.1" xmlns="http://www.w3.org/2000/svg" xmlns:xlink="http://www.w3.org/1999/xlink">
    <!-- Generator: Sketch 54.1 (76490) - https://sketchapp.com -->
    <title>Group 8</title>
    <desc>Created with Sketch.</desc>
    <defs>
        <linearGradient x1="0%" y1="4.89177527%" x2="123.65797%" y2="98.5791696%" id="linearGradient-1">
            <stop stop-color="#FFCD2C" offset="0%"></stop>
            <stop stop-color="#FF0663" offset="100%"></stop>
        </linearGradient>
    </defs>
    <g id="Page-1" stroke="none" stroke-width="1" fill="none" fill-rule="evenodd">
        <g id="Desktop-HD-Copy" transform="translate(-759.000000, -1097.000000)">
            <g id="Group-8" transform="translate(759.000000, 1097.000000)">
                <circle id="Oval-Copy-3" fill="#FFF2D8" cx="43.5" cy="43.5" r="43.5"></circle>
                <path d="M21.126747,49.2163513 C20.3949209,48.2022541 20,46.9879592 20,45.7130985 C20,42.4045047 22.6914063,39.7130985 26,39.7130985 C26.0512695,39.7130985 26.1025391,39.7170048 26.1538086,39.7248173 C34.6123047,41.040247 43.2290039,41.3332157 51.7661133,40.5949345 L61.9135742,39.7170048 C61.9160156,39.7170048 61.918457,39.7170048 61.9208984,39.7170048 C65.3120117,39.7170048 68,42.4064579 68,45.7130985 C68,46.9833434 67.6029949,48.2035413 66.8700531,49.2194722 C67.582911,50.2038045 68,51.4105668 68,52.7130966 C68,56.0060654 65.3330078,58.687706 62.0458984,58.7130966 L52.1547851,59.5822372 C48.987793,59.8605576 45.8071289,60.000206 42.6279297,60.000206 C37.1889649,60.000206 31.7504883,59.5929794 26.371582,58.781456 L25.9213867,58.7121201 C22.6489258,58.6701279 20,55.9953232 20,52.7130966 C20,51.4093862 20.4178829,50.2015039 21.126747,49.2163513 Z M22.5777252,47.7871089 C23.5489977,47.1103006 24.7289559,46.7130966 26,46.7130966 C26.0512695,46.7130966 26.1025391,46.7170029 26.1538086,46.7248154 C34.6123047,48.0402451 43.2290039,48.3332138 51.7661133,47.5949326 L61.9135742,46.7170029 C61.9160156,46.7170029 61.918457,46.7170029 61.9208984,46.7170029 C63.2281361,46.7170029 64.430888,47.1166609 65.4154524,47.7972682 C65.7960662,47.1748582 66,46.4567563 66,45.7130985 C66,43.5070438 64.2055664,41.7130985 62,41.7130985 L51.9384766,42.587122 C43.2685547,43.337122 34.519043,43.0422001 25.9272461,41.7140751 C23.7548828,41.7531376 22,43.5314579 22,45.7130985 C22,46.4559084 22.2011091,47.1680336 22.5777252,47.7871089 Z M22.9568789,50.1197339 C22.3604603,50.8184341 22,51.7243435 22,52.7130966 C22,54.9191513 23.7944336,56.7130966 26,56.7130966 C26.050293,56.7130966 26.1005859,56.7170029 26.1499023,56.7248154 L26.6708984,56.803917 C35.0361328,58.0675889 43.5507812,58.3322373 51.9799804,57.5900498 L61.9125976,56.7170029 C61.9414063,56.7140732 61.9707031,56.7130966 62,56.7130966 C64.2055664,56.7130966 66,54.9191513 66,52.7130966 C66,50.5070419 64.2055664,48.7130966 62,48.7130966 L51.9384766,49.58712 C43.2685547,50.3361435 34.519043,50.0421982 25.9272461,48.7140732 C24.9375894,48.7318688 24.034577,49.110632 23.3446589,49.7240514 C23.2996123,49.8074405 23.2418559,49.8857915 23.1713867,49.9562607 C23.1059256,50.0217218 23.0336632,50.0762128 22.9568789,50.1197339 Z M54.0561523,37.5158329 C53.821289,37.5158329 53.5854492,37.4338016 53.3950195,37.2658329 C52.980957,36.9005985 52.9414062,36.2687626 53.3066406,35.8547001 L55.3725586,33.5129032 C56.125,32.6593876 56.059082,31.6261844 55.2016602,30.8156376 C53.7402344,29.4357538 53.4716797,27.4298945 54.5336914,25.8254023 L56.1660156,23.3576289 C56.4707031,22.8957148 57.0898437,22.7697383 57.5517578,23.0754023 C58.012207,23.3800898 58.1386719,24.000207 57.8339844,24.4611445 L56.2016602,26.9289179 C55.6708985,27.7306757 55.8105469,28.6398554 56.5747071,29.3625117 C58.2211915,30.9172002 58.3432618,33.1681767 56.8725587,34.8351689 L54.8066407,37.1769658 C54.6088867,37.4015751 54.3330078,37.5158329 54.0561523,37.5158329 Z M30.9995117,38.0002079 C30.7646484,38.0002079 30.5288086,37.9181766 30.3383789,37.7502079 C29.9243164,37.3849735 29.8847656,36.7531376 30.25,36.3390751 L32.315918,33.9972782 C33.0683594,33.1437626 33.0029297,32.111536 32.1450196,31.3019657 C30.6840821,29.9201288 30.4160157,27.915246 31.4770508,26.3097772 L33.109375,23.8429803 C33.4140625,23.3810662 34.0341797,23.2560662 34.4951172,23.5607537 C34.9555664,23.8654412 35.0820313,24.4855584 34.7773438,24.9464959 L33.1450196,27.4132928 C32.6147462,28.2150506 32.7543946,29.1252069 33.5185548,29.8478631 C35.1645509,31.401575 35.2871095,33.6525516 33.8159181,35.3195437 L31.75,37.6613407 C31.5522461,37.8859501 31.2763672,38.0002079 30.9995117,38.0002079 Z M42.527832,34.6066532 C42.2929687,34.6066532 42.0571289,34.5246219 41.8666992,34.3566532 C41.4526367,33.9914188 41.4130859,33.3595829 41.7783203,32.9455204 L43.8442383,30.6037235 C44.5966797,29.7502069 44.5307617,28.7170038 43.6733399,27.9064569 C42.2119141,26.5265741 41.9433594,24.5207147 43.0053711,22.9162225 L44.6376953,20.4484495 C44.9423828,19.9865355 45.5625,19.8615355 46.0234375,20.166223 C46.4838867,20.4709105 46.6103516,21.0910277 46.3056641,21.5519652 L44.6733399,24.0197382 C44.1425782,24.821496 44.2822266,25.7306757 45.0463868,26.453332 C46.6928712,28.0080195 46.8149415,30.258997 45.3442384,31.9259892 L43.2783204,34.2677861 C43.0805664,34.4923954 42.8046875,34.6066532 42.527832,34.6066532 Z" id="Combined-Shape" fill="url(#linearGradient-1)" fill-rule="nonzero"></path>
            </g>
        </g>
    </g>
</svg>