<?xml version="1.0" encoding="UTF-8"?>
<svg width="87px" height="87px" viewBox="0 0 87 87" version="1.1" xmlns="http://www.w3.org/2000/svg" xmlns:xlink="http://www.w3.org/1999/xlink">
    <!-- Generator: Sketch 54.1 (76490) - https://sketchapp.com -->
    <title>Group 6</title>
    <desc>Created with Sketch.</desc>
    <defs>
        <linearGradient x1="0%" y1="16.0199695%" x2="123.65797%" y2="86.5946936%" id="linearGradient-1">
            <stop stop-color="#FFCD2C" offset="0%"></stop>
            <stop stop-color="#FF0663" offset="100%"></stop>
        </linearGradient>
    </defs>
    <g id="Page-1" stroke="none" stroke-width="1" fill="none" fill-rule="evenodd">
        <g id="Desktop-HD-Copy" transform="translate(-433.000000, -1097.000000)">
            <g id="Group-6" transform="translate(433.000000, 1097.000000)">
                <circle id="Oval-Copy" fill="#FFF2D8" cx="43.5" cy="43.5" r="43.5"></circle>
                <path d="M66.0560338,45.8757354 C65.3605341,45.1802357 64.032762,45.1802357 63.0211261,45.1170085 C62.7682171,45.1170085 62.5785354,45.1170085 62.4520809,45.1170085 C60.4920363,44.9273268 58.595219,45.0537812 56.5719471,45.496372 C56.5087199,45.496372 56.3822654,45.5595992 56.1925837,45.5595992 C52.7150852,46.4447806 49.4904958,46.8241441 46.5820425,46.7609168 C47.0878605,46.6344624 47.5304512,46.5080079 47.8465874,46.3815534 C51.0079496,45.243463 54.1693118,43.3466456 57.7732648,40.5014196 C61.8830357,37.2136029 63.4637168,31.6496054 63.4637168,31.5863782 C63.4637168,31.5863782 63.4637168,31.5231509 63.4637168,31.5231509 C63.5901713,30.5747423 63.4637168,29.4998791 62.1359446,28.9308339 C61.3772177,28.6146977 60.3023546,28.9940611 59.4171731,29.3101974 C59.2274914,29.3734246 59.0378097,29.4366519 58.9745824,29.4998791 C57.3939013,30.0056971 55.8764474,30.7011967 54.3589936,31.7128327 C54.2957663,31.7760599 54.1693118,31.8392871 54.0428574,31.9025144 C50.6918134,34.3051497 47.5936784,35.8858308 44.7484524,36.707785 C44.0529527,36.8974667 39.2476822,37.7826481 37.3508648,37.4665119 C36.8450469,37.4032847 36.2760017,37.3400574 35.7701837,37.2768302 C34.3159571,37.0871484 32.7985032,36.8974667 31.4075038,36.3284215 L31.2178221,36.2651943 C29.5739137,35.5064673 28.6255051,35.1271039 27.6138692,33.60965 C27.4874147,33.4831955 27.4241874,33.2302865 27.2977329,33.0406048 C26.791915,32.0921961 26.0964153,30.8276512 24.8950977,30.8276512 C24.5789614,30.8276512 24.3260525,30.8908785 24.0731435,30.8908785 C24.0099162,30.8908785 23.946689,30.8276512 23.8834617,30.8276512 C23.3776438,30.6379695 22.8718258,30.6379695 22.4924624,30.764424 C22.1763261,30.5747423 21.8601899,30.511515 21.4175992,30.511515 C20.7220995,30.511515 19.9633726,30.764424 19.9001453,30.8276512 C19.5840091,30.9541057 19.3311001,31.3334692 19.3943274,31.6496054 C19.3943274,31.7128327 20.1530543,36.8974667 20.2162816,37.6561936 C20.4059633,39.1104203 20.2795088,40.5014196 20.1530543,41.892419 C19.9633726,44.1053726 19.7736909,46.3815534 20.7853268,48.8474159 C24.3260525,57.1301849 32.229458,60.6709106 38.2360462,62.1883645 C40.8915905,62.8838642 43.7368165,63.2000004 46.5188153,63.2000004 C48.0994964,63.2000004 49.7434047,63.0735459 51.3873131,62.8838642 C55.5603112,62.314819 61.5668994,57.7624574 61.6933539,57.5727756 C61.6933539,57.5727756 61.7565812,57.5095484 61.7565812,57.5095484 C62.3256264,56.5611397 62.7682171,55.5495038 61.7565812,54.1585044 C61.6933539,54.0952772 61.6301267,54.03205 61.6301267,53.9688227 C64.1592165,51.9455509 66.37217,49.5429156 66.4986245,49.3532339 C66.4986245,49.3532339 66.4986245,49.2900066 66.5618518,49.2900066 C67.0044425,48.1519162 67.2573514,47.0138258 66.0560338,45.8757354 Z M58.9745824,52.7675051 C58.7216734,52.7042778 58.5319917,52.6410506 58.4055372,52.6410506 C57.6468103,52.3881416 56.9513106,52.2616871 56.1925837,52.1352326 C59.4804004,51.5661874 61.8830357,50.8706877 63.779853,49.9855063 C62.8314443,50.8706877 61.5668994,52.0720054 60.1759001,53.0836413 C59.7333094,52.8939596 59.3539459,52.8307323 58.9745824,52.7675051 Z M56.5087199,47.0770531 C56.6351744,47.0138258 56.7616289,47.0138258 56.8880834,47.0138258 C58.7216734,46.6344624 60.428809,46.5080079 62.2623991,46.6976896 C62.4520809,46.6976896 62.7049898,46.6976896 62.9578988,46.7609168 C63.4637168,46.7609168 64.7282617,46.8241441 64.9811706,47.0770531 C65.3605341,47.4564165 65.4869886,47.7093255 65.2340796,48.341598 C62.8946716,49.9855063 59.2907186,51.0603695 53.2841304,51.8190964 C53.0312214,51.8190964 52.7783125,51.8190964 52.5254035,51.8190964 C52.4621762,51.8190964 52.2724945,51.8190964 52.14604,51.8190964 C51.7034493,51.8190964 51.0079496,51.8823236 50.1859954,51.8823236 C46.455588,51.8823236 43.0413168,51.3765057 40.1960908,50.428097 C39.3741366,50.175188 33.8733664,47.7725528 32.1030035,46.1286444 C31.5971856,45.6860537 31.0913676,45.243463 30.5855497,44.8008723 C29.131323,43.5995546 27.6770964,42.3350097 26.539006,40.7543286 L26.4125515,40.5646469 C25.0847794,38.6678296 24.2628252,37.5929664 23.946689,35.1903311 C23.946689,34.9374221 23.8834617,34.6845132 23.8834617,34.3683769 C23.8834617,33.7993317 23.8202345,33.2302865 23.69378,32.6612413 C23.946689,33.103832 24.1363707,33.9257862 24.199598,34.4948314 C24.2628252,34.8109676 24.3260525,35.1271039 24.3892797,35.4432401 C25.1480066,38.0987844 26.3493243,39.300102 27.9932326,40.9440104 L28.1829144,41.1336921 C29.637141,42.5879187 31.4075038,43.5995546 33.1146394,44.5479633 C33.6836846,44.8640995 34.2527298,45.1802357 34.7585478,45.496372 C36.1495472,46.3815534 38.9315459,47.1402803 41.0812722,47.7093255 C41.0812722,47.7093255 41.0812722,47.7093255 41.1444995,47.7093255 C42.5354989,48.0254617 43.6735893,48.2783707 43.9897255,48.341598 C47.5936784,48.5945069 51.8299038,48.2783707 56.5087199,47.0770531 Z M56.6984016,39.300102 C53.2209032,42.0188735 50.1859954,43.8524636 47.214315,44.9273268 C46.0762246,45.3699175 42.6619534,46.0654172 41.3341812,46.0021899 C39.3109094,45.496372 36.7185924,44.737645 35.5172747,43.9789181 C35.4540475,43.9156908 35.3908202,43.9156908 35.327593,43.8524636 C36.7185924,44.1685998 38.3625007,44.3582816 40.2593181,44.3582816 C40.8283633,44.3582816 41.3341812,44.3582816 41.9664537,44.2950543 C49.4904958,43.8524636 56.9513106,37.9091026 60.1759001,33.9890135 C60.6184908,33.4199683 61.3139905,32.5980141 61.7565812,31.7128327 C61.2507632,33.103832 59.7333094,36.960694 56.6984016,39.300102 Z M26.3493243,34.4316042 C27.6138692,36.3284215 28.8784141,36.8974667 30.6487769,37.6561936 L30.8384586,37.7194209 C32.4191397,38.4149206 33.9998209,38.6046023 35.6437292,38.794284 C36.1495472,38.8575113 36.7185924,38.9207385 37.1611831,38.9839658 C39.4373639,39.3633292 44.6219979,38.3516933 45.1910431,38.1620116 C48.1627236,37.3400574 51.4505403,35.6329218 54.9280388,33.1670593 C55.0544933,33.103832 55.1177205,33.0406048 55.1809478,32.9773775 C56.5719471,32.0289689 57.8997193,31.3966964 59.3539459,30.9541057 C59.5436276,30.8908785 59.7333094,30.8276512 59.9229911,30.764424 C60.3023546,30.6379695 61.187536,30.258606 61.440445,30.3218333 C61.440445,30.3218333 61.5036722,30.3218333 61.5036722,30.3218333 C61.3139905,31.1437875 60.6184908,32.2818779 59.6068549,33.5464228 C56.5087199,37.3400574 49.1743595,43.1569639 41.9032264,43.5995546 C37.7934555,43.8524636 34.6953206,43.0937367 32.6720487,42.3350097 C31.4707311,41.63951 30.2694134,40.8807831 29.2577775,39.8691472 L29.0680958,39.6794655 C27.4874147,38.0987844 26.539006,37.1503757 25.8435063,34.8741949 C25.7802791,34.6845132 25.7170518,34.3683769 25.6538246,34.0522407 C25.5905973,33.6728772 25.4641429,33.2302865 25.3376884,32.8509231 C25.5273701,33.1670593 25.7170518,33.4831955 25.8435063,33.6728772 C26.0331881,33.9890135 26.1596425,34.2419224 26.3493243,34.4316042 Z M51.2608586,61.2399558 C49.6801775,61.4296376 48.1627236,61.556092 46.5820425,61.556092 C43.863271,61.556092 41.2077267,61.2399558 38.678637,60.6076834 C32.9881849,59.1534568 25.5905973,55.86564 22.3027806,48.2151435 C21.4175992,46.1286444 21.6072809,44.1053726 21.7969627,42.0188735 C21.9234172,40.5646469 22.0498717,39.1104203 21.8601899,37.4665119 C21.7969627,36.8342395 21.2911447,33.5464228 21.101463,32.0921961 C21.2279175,32.0921961 21.354372,32.0289689 21.4808265,32.0289689 C21.6072809,32.0921961 21.6705082,32.0921961 21.6705082,32.0921961 C21.6705082,32.0921961 21.7337354,32.1554234 21.7337354,32.1554234 C21.7337354,32.1554234 21.7337354,32.1554234 21.7337354,32.1554234 C21.7337354,32.1554234 21.7337354,32.1554234 21.7337354,32.1554234 C22.1130989,32.5347868 22.1130989,33.6728772 22.1763261,34.4316042 C22.1763261,34.7477404 22.2395534,35.1271039 22.2395534,35.3800128 C22.6189169,38.1620116 23.6305528,39.553011 24.9583249,41.5130556 L25.0847794,41.7027373 C26.3493243,43.4098729 27.8667781,44.737645 29.384232,46.0021899 C29.89005,46.4447806 30.3958679,46.8241441 30.9016859,47.2667348 C32.9881849,49.1635521 38.9315459,51.6294147 39.5638184,51.8823236 C42.5354989,52.8939596 46.202679,53.3997775 50.059541,53.3997775 C50.9447224,53.3997775 51.7034493,53.3997775 52.0828128,53.3365503 C52.2092673,53.3365503 52.3357218,53.3365503 52.4621762,53.3365503 C54.2957663,53.273323 56.0661292,53.526232 57.836492,54.0952772 C58.0261738,54.1585044 58.2790827,54.2217317 58.5319917,54.2849589 C59.0378097,54.4114134 60.2391273,54.6643224 60.4920363,54.9804586 C60.7449453,55.3598221 60.8713998,55.5495038 60.7449453,55.86564 C53.4105849,59.1534568 44.6219979,58.963775 35.9598654,55.2333676 C26.6022333,51.2500512 23.3144165,43.6627819 23.3144165,43.5995546 C23.3144165,43.4731001 23.0615076,43.4098729 22.9350531,43.4731001 C22.7453713,43.5363274 22.6821441,43.7260091 22.7453713,43.9156908 C22.8085986,43.9789181 26.1596425,51.8190964 35.7701837,55.9288673 C40.4489998,57.8889119 45.1910431,58.9005478 49.6801775,58.9005478 C53.1576759,58.9005478 56.5719471,58.3315026 59.7333094,57.1301849 C57.8997193,58.3947298 53.9796301,60.9238196 51.2608586,61.2399558 Z" id="Shape" fill="url(#linearGradient-1)" fill-rule="nonzero"></path>
            </g>
        </g>
    </g>
</svg>