<?xml version="1.0" encoding="UTF-8"?>
<svg width="83px" height="83px" viewBox="0 0 83 83" version="1.1" xmlns="http://www.w3.org/2000/svg" xmlns:xlink="http://www.w3.org/1999/xlink">
    <!-- Generator: Sketch 54.1 (76490) - https://sketchapp.com -->
    <title>Group 9</title>
    <desc>Created with Sketch.</desc>
    <g id="Page-1" stroke="none" stroke-width="1" fill="none" fill-rule="evenodd">
        <g id="Desktop-HD" transform="translate(-679.000000, -861.000000)">
            <g id="Group-9" transform="translate(720.500000, 902.500000) scale(-1, 1) translate(-720.500000, -902.500000) translate(679.000000, 861.000000)">
                <rect id="Rectangle" fill="#E57227" fill-rule="nonzero" x="0" y="0" width="82.2169811" height="82.2169811" rx="41.1084906"></rect>
                <path d="M28.7008714,42.5240795 C28.3791295,42.0943297 28.1886792,41.5599666 28.1886792,40.9779874 C28.1886792,40.3994451 28.3782684,39.8653437 28.6996295,39.4348477 C28.8200382,39.1480922 28.9947811,38.878231 29.2242158,38.6406444 L40.142786,27.334134 C41.1331005,26.3086333 42.7603345,26.2734391 43.7932886,27.2709513 C44.8190911,28.2615572 44.8501654,29.8935469 43.8575452,30.9214352 L36.6395135,38.3959259 L56.9196783,38.3959259 C58.3499609,38.3959259 59.509434,39.5420122 59.509434,40.9779874 C59.509434,42.4040206 58.3575663,43.5600489 56.9196783,43.5600489 L36.6395135,43.5600489 L43.8575452,51.0345396 C44.8501654,52.0624279 44.8190911,53.6944176 43.7932886,54.6850235 C42.7603345,55.6825357 41.1331005,55.6473416 40.142786,54.6218409 L29.2242158,43.3153304 C28.9955687,43.0785594 28.8212386,42.8097349 28.7008714,42.5240795 Z" id="Back-Arrow-(30x30)" fill="#FFFFFF"></path>
            </g>
        </g>
    </g>
</svg>