<?xml version="1.0" encoding="UTF-8"?>
<svg width="43px" height="43px" viewBox="0 0 43 43" version="1.1" xmlns="http://www.w3.org/2000/svg" xmlns:xlink="http://www.w3.org/1999/xlink">
    <!-- Generator: Sketch 54.1 (76490) - https://sketchapp.com -->
    <title>Group 2</title>
    <desc>Created with Sketch.</desc>
    <g id="Page-1" stroke="none" stroke-width="1" fill="none" fill-rule="evenodd">
        <g id="Desktop-HD-Copy" transform="translate(-219.000000, -51.000000)">
            <g id="Group-2" transform="translate(219.000000, 51.000000)">
                <circle id="Oval-Copy-6" stroke="#16A085" stroke-width="2" cx="21.5" cy="21.5" r="20.5"></circle>
                <path d="M18.8492706,13.3617707 L20.8973749,17.1166286 C21.0680503,17.5148711 20.9542667,18.0268972 20.612916,18.2544643 L18.7923788,19.3923 C19.1906213,20.473244 20.0439981,21.7817551 21.1249421,22.9764826 C22.205886,24.1143183 23.4575053,25.0814787 24.5384493,25.536613 L25.7900686,23.8298594 C26.0176357,23.4316169 26.5296618,23.3747251 26.9279043,23.6022922 L30.5689787,25.9348555 C30.9103294,26.1624226 31.024113,26.6175569 30.739654,26.9589077 L28.9760086,29.4621463 C26.7003372,31.2257916 22.2627778,28.6656612 18.8492706,25.0245869 C15.549547,21.3835126 13.2738755,16.8321696 15.2081963,14.6702817 L17.7683267,13.0773117 C18.1665692,12.8497446 18.6217035,12.9635281 18.8492706,13.3617707 Z" id="Path" fill="#16A085"></path>
            </g>
        </g>
    </g>
</svg>