<?xml version="1.0" encoding="UTF-8"?>
<svg width="44px" height="43px" viewBox="0 0 44 43" version="1.1" xmlns="http://www.w3.org/2000/svg" xmlns:xlink="http://www.w3.org/1999/xlink">
    <!-- Generator: Sketch 54.1 (76490) - https://sketchapp.com -->
    <title>Group 4</title>
    <desc>Created with Sketch.</desc>
    <g id="Page-1" stroke="none" stroke-width="1" fill="none" fill-rule="evenodd">
        <g id="Desktop-HD-Copy" transform="translate(-1166.000000, -51.000000)">
            <g id="Group-4" transform="translate(1166.500000, 51.000000)">
                <circle id="Oval" fill="#ED1C23" cx="21.5" cy="21.5" r="21.5"></circle>
                <path d="M31.027138,20.2940741 L29.9340277,20.2940741 L29.1393652,14.7935238 C28.9425574,13.4290536 27.730068,12.3601547 26.3792617,12.3601547 L25.2571456,12.3601547 C24.9737999,11.8713714 24.4469015,11.542 23.841376,11.542 L19.3320562,11.542 C18.7262909,11.542 18.1991528,11.8713714 17.9160468,12.3601547 L16.9094744,12.3601547 C15.5634625,12.3601547 14.3435418,13.4252181 14.1323509,14.7851337 L13.2803961,20.2940741 L12.1460544,20.2940741 C11.6287448,20.2940741 11.209,20.7600842 11.209,21.3356452 C11.209,21.910487 11.6287448,22.3769766 12.1460544,22.3769766 L12.5375126,22.3769766 L14.1124544,29.9520393 C14.2145739,30.255761 14.4981594,30.46 14.8179421,30.46 L28.3550106,30.46 C28.6750331,30.46 28.9593376,30.2555212 29.060738,29.9520393 L30.6359196,22.3769766 L31.0268983,22.3769766 C31.5446874,22.3769766 31.9639527,21.9107267 31.9639527,21.3356452 C31.9641924,20.7600842 31.5449271,20.2940741 31.027138,20.2940741 Z M17.8136876,28.8908114 C17.7736548,28.8956057 17.7341015,28.8977632 17.695507,28.8977632 C17.2136755,28.8977632 16.7965676,28.5381874 16.7371178,28.0477261 L16.1682689,23.3861859 C16.103785,22.8564109 16.4813395,22.3743397 17.0113542,22.3093763 C17.5423278,22.244413 18.0236798,22.6226867 18.0881638,23.1524616 L18.6567729,27.8137621 C18.7207774,28.3437768 18.343942,28.8260877 17.8136876,28.8908114 Z M22.553855,27.9307441 C22.553855,28.464834 22.1204464,28.8975235 21.5865962,28.8975235 C21.0527461,28.8975235 20.6200566,28.4645942 20.6200566,27.9307441 L20.6200566,23.2694436 C20.6200566,22.7355935 21.0529858,22.3026643 21.5865962,22.3026643 C22.1206861,22.3026643 22.553855,22.7358332 22.553855,23.2694436 L22.553855,27.9307441 Z M27.0054029,23.3864256 L26.4363144,28.0479658 C26.3768645,28.5381874 25.9595169,28.8977632 25.4776854,28.8977632 C25.4386115,28.8977632 25.3995376,28.895366 25.3595048,28.8908114 C24.8294902,28.825848 24.4521753,28.3437768 24.5164195,27.8137621 L25.0857478,23.1524616 C25.1504715,22.6222073 25.6315838,22.244413 26.1623176,22.3093763 C26.6928118,22.3743397 27.0698869,22.8564109 27.0054029,23.3864256 Z M14.9363624,20.2940741 L15.7497227,15.0353984 C15.8355415,14.4818914 16.377542,13.9962244 16.9094744,13.9962244 L17.9160468,13.9962244 C18.1993925,14.4850078 18.7262909,14.8143792 19.3320562,14.8143792 L23.8416157,14.8143792 C24.4471413,14.8143792 24.9742793,14.4850078 25.2573853,13.9962244 L26.3795014,13.9962244 C26.9080778,13.9962244 27.4409691,14.4778162 27.5200757,15.027248 L28.280938,20.2940741 L14.9363624,20.2940741 L14.9363624,20.2940741 Z" id="Shape" fill="#FFFFFF" fill-rule="nonzero"></path>
            </g>
        </g>
    </g>
</svg>