<?xml version="1.0" encoding="UTF-8"?>
<svg width="87px" height="87px" viewBox="0 0 87 87" version="1.1" xmlns="http://www.w3.org/2000/svg" xmlns:xlink="http://www.w3.org/1999/xlink">
    <!-- Generator: Sketch 54.1 (76490) - https://sketchapp.com -->
    <title>Group 10</title>
    <desc>Created with Sketch.</desc>
    <defs>
        <linearGradient x1="-20.3556449%" y1="-34.9983811%" x2="141.443117%" y2="151.913577%" id="linearGradient-1">
            <stop stop-color="#FFCD2C" offset="0%"></stop>
            <stop stop-color="#FF0663" offset="100%"></stop>
        </linearGradient>
    </defs>
    <g id="Page-1" stroke="none" stroke-width="1" fill="none" fill-rule="evenodd">
        <g id="Desktop-HD-Copy" transform="translate(-1089.000000, -1097.000000)">
            <g id="Group-10" transform="translate(1089.000000, 1097.000000)">
                <circle id="Oval-Copy-5" fill="#FFF2D8" cx="43.5" cy="43.5" r="43.5"></circle>
                <path d="M63.9298279,26.1001912 C67.8718929,30.5894837 70.1722753,36.2745698 70.4762906,42.2332696 C71.2059273,56.81587 59.9776291,69.2399618 45.3848948,69.9695985 C44.9390057,69.9898662 44.4931166,70 44.0472275,70 C38.3216061,70 32.7479924,68.1455067 28.1674952,64.7 L27.5797323,65.7640535 C27.407457,66.0782027 27.1135755,66.3214149 26.7690249,66.4227533 C26.0393881,66.6456979 25.2590822,66.2302103 25.0361377,65.5005736 L24.0227533,62.2172084 C23.465392,60.4437859 22.107457,59.0351816 20.3441683,58.4372849 L18.1451243,57.6873805 C17.8715105,57.5961759 17.6282983,57.4239006 17.4458891,57.200956 C16.9087954,56.5321224 17.0101338,55.5592734 17.6688337,55.0221797 L18.6416826,54.23174 C18.9355641,53.9885277 19.2395793,53.7655832 19.5537285,53.5527725 C15.5407266,43.692543 17.8208413,32.383174 25.3604207,24.8537285 C34.2782027,15.9258126 48.2426386,14.5577438 58.7007648,21.5196941 L62.0043977,20.6583174 C62.2678776,20.5975143 62.5313576,20.6076482 62.7847036,20.6988528 C63.4636711,20.9521989 63.8082218,21.7021033 63.5650096,22.3810707 L63.3116635,23.0701721 C63.4332696,23.0803059 63.5548757,23.1005736 63.6764818,23.1512428 C64.2743786,23.3843212 64.56826,24.0531549 64.3351816,24.6510516 C64.2034417,25.1374761 64.0717017,25.6239006 63.9298279,26.1001912 Z M19.523327,39.1120459 C18.682218,43.7026769 19.1585086,48.4250478 20.8711281,52.7623327 C22.16826,52.0732314 23.5667304,51.5969407 25.0057361,51.3435946 L26.0292543,51.1713193 C24.3267686,47.1380497 24.0227533,42.6487572 25.1780115,38.4229446 C28.0256214,27.9952199 38.7776291,21.8541109 49.1952199,24.691587 C51.1409178,23.718738 53.1778203,22.9586998 55.2856597,22.4114723 L56.6739962,22.0466539 C46.9657744,16.3311663 34.5011472,17.8512428 26.4244742,25.9279159 C22.8269598,29.5152964 20.4151052,34.1160612 19.523327,39.1120459 Z M36.7711281,35.8894837 C38.5952199,33.0114723 40.8753346,30.4678776 43.5202677,28.3397706 C43.1655832,28.1978967 42.790631,28.0965583 42.4055449,28.0357553 C41.5137667,27.9040153 40.6017208,28.0053537 39.7606119,28.3397706 C37.8250478,31.1164436 36.2543021,34.126195 35.0787763,37.298088 L35.9502868,37.1866157 L36.7711281,35.8894837 Z M44.8782027,27.2858509 C45.6179732,26.7487572 46.3780115,26.2521989 47.1583174,25.7759082 C43.7432122,25.1780115 40.2166348,25.5833652 37.0143403,26.9413002 C27.8432122,30.8225621 23.5565966,41.4124283 27.4479924,50.5835564 C28.9883365,49.2154876 30.2550669,47.573805 31.1975143,45.7395793 L33.9437859,40.4193117 C34.1059273,40.1051625 34.2782027,39.8011472 34.4707457,39.4971319 L34.8963671,38.8282983 L34.0552581,38.9397706 C34.0248566,38.9499044 33.9843212,38.9499044 33.9539197,38.9499044 C33.8728489,38.9499044 33.7917782,38.9397706 33.7107075,38.909369 C33.3154876,38.7776291 33.1026769,38.3418738 33.2344168,37.9466539 C34.5112811,34.1464627 36.3353728,30.5388145 38.6560229,27.2655832 C38.7370937,27.1541109 38.848566,27.0730402 38.9701721,27.0122371 C40.8652008,26.1711281 43.0642447,26.2623327 44.8782027,27.2858509 Z M26.4042065,64.7709369 L27.1237094,63.5042065 C27.1642447,63.4130019 27.214914,63.3217973 27.2655832,63.2305927 C28.1776291,61.5382409 28.8363289,59.724283 29.2416826,57.849522 L29.5862333,56.2585086 L29.5963671,56.2281071 L29.7585086,55.4782027 C29.8091778,55.2248566 29.991587,55.0221797 30.2246654,54.9309751 L41.0070746,50.7456979 C43.1959847,49.8640535 45.2936902,48.7695985 47.2596558,47.4623327 C50.1173996,45.5571702 52.6711281,43.2263862 54.8296367,40.5510516 C55.1437859,40.1659656 55.4478011,39.7707457 55.7518164,39.365392 C54.4749522,38.9195029 53.2994264,38.2 52.3367113,37.2474187 C50.999044,35.9300191 50.0971319,34.2275335 49.7525813,32.383174 C49.7424474,32.3730402 49.7424474,32.3527725 49.7424474,32.3426386 C49.6715105,31.9271511 49.9552581,31.5319312 50.3707457,31.4711281 C50.7862333,31.4001912 51.1814532,31.6839388 51.2422562,32.0994264 C51.7590822,34.9571702 53.8770554,37.2676864 56.6739962,38.0479924 C57.0894837,37.4399618 57.4948375,36.8116635 57.8799235,36.1732314 C56.7753346,35.8489484 55.7720841,35.2510516 54.9512428,34.450478 C53.9277247,33.4269598 53.2284895,32.1196941 52.9650096,30.700956 C52.8839388,30.2854685 53.1575526,29.8902486 53.5730402,29.8091778 C53.9885277,29.7281071 54.3837476,30.0017208 54.4648184,30.4172084 C54.8600382,32.5959847 56.5219885,34.318738 58.6703633,34.8051625 C60.4235182,31.6130019 61.791587,28.2282983 62.7441683,24.7219885 C62.6124283,24.7219885 62.4705545,24.7017208 62.3388145,24.6510516 C61.7409178,24.4382409 61.4369025,23.7795411 61.6497132,23.1816444 L61.9942639,22.2391969 L55.6707457,23.8707457 C53.5933078,24.4078394 51.5868069,25.1678776 49.6816444,26.1305927 C49.641109,26.1609943 49.6107075,26.1711281 49.5701721,26.1913958 C48.1311663,26.9311663 46.7529637,27.7824092 45.4456979,28.7451243 C45.4051625,28.7856597 45.3646272,28.8160612 45.3139579,28.8464627 C42.4460803,31.0049713 39.9835564,33.6600382 38.0581262,36.6900574 L37.0447419,38.2810707 L35.7476099,40.3179732 C35.5753346,40.5814532 35.423327,40.8550669 35.2814532,41.1286807 L32.5351816,46.4489484 C31.4305927,48.5871893 29.9206501,50.4923518 28.0864245,52.0428298 L27.792543,52.2961759 C27.6912046,52.3873805 27.5594646,52.4481836 27.4277247,52.4684512 L25.2590822,52.8434034 C23.1816444,53.198088 21.2359465,54.0898662 19.5942639,55.4173996 L18.6214149,56.2078394 C18.6112811,56.2179732 18.6011472,56.2179732 18.6112811,56.2382409 C18.6214149,56.2585086 18.6214149,56.2585086 18.6315488,56.2585086 L20.8407266,57.008413 C23.0600382,57.7684512 24.7827916,59.5418738 25.4820268,61.7814532 L26.4042065,64.7709369 Z M60.2715105,52.8839388 C60.2715105,52.5697897 60.2613767,52.2455067 60.2208413,51.9516252 C59.6533461,52.2455067 59.0554493,52.4887189 58.4474187,52.6711281 C58.4474187,52.7521989 58.4474187,52.8231358 58.4474187,52.9042065 C58.4474187,53.5629063 58.3562141,54.2216061 58.173805,54.8600382 C57.0894837,58.7007648 53.0967495,60.950478 49.2458891,59.8661568 C45.4051625,58.7818356 43.1554493,54.7891013 44.2397706,50.9382409 C43.8040153,51.1510516 43.3581262,51.3638623 42.9021033,51.5665392 C42.4258126,52.9650096 42.273805,53.3095602 42.2535373,53.3602294 C42.2332696,53.4108987 42.2028681,53.4615679 42.1826004,53.5122371 C42.5068834,58.2650096 46.4590822,61.9435946 51.2219885,61.9435946 C56.2179732,61.9435946 60.2715105,57.8900574 60.2715105,52.8839388 Z M40.8753346,52.7319312 C40.8753346,52.7217973 40.91587,52.6305927 41.0273423,52.3367113 L37.1055449,53.8669216 L36.517782,55.3667304 C37.7541109,55.1944551 38.9397706,54.7891013 40.0240918,54.1608031 C40.3585086,53.714914 40.6422562,53.2386233 40.8753346,52.7319312 Z M34.7342256,56.6537285 C34.5923518,56.4409178 34.5619503,56.1774379 34.6531549,55.9443595 L35.1699809,54.6269598 L31.1671128,56.1875717 C31.2076482,56.2281071 31.2583174,56.2787763 31.2988528,56.3193117 C34.9470363,59.9674952 40.0038241,61.8827916 45.1416826,61.5686424 C43.0237094,60.0992352 41.5239006,57.8900574 40.91587,55.3869981 L40.9057361,55.3971319 C39.233652,56.4003824 37.3183556,56.9476099 35.3625239,56.9780115 L35.3523901,56.9780115 C35.1091778,56.9780115 34.8760994,56.8564054 34.7342256,56.6537285 Z M47.6143403,57.3225621 C48.4351816,57.981262 49.4181644,58.4068834 50.4518164,58.5487572 L50.4518164,54.6472275 L47.6143403,57.3225621 Z M47.1684512,49.3066922 C46.925239,49.448566 46.6921606,49.6005736 46.4489484,49.7525813 C45.9726577,50.4720841 45.6686424,51.2827916 45.5571702,52.1340344 L49.5701721,52.1340344 L47.1684512,49.3066922 Z M49.2965583,53.6439771 L45.5571702,53.6439771 C45.6787763,54.5762906 46.0334608,55.457935 46.5806883,56.2179732 L49.2965583,53.6439771 Z M51.9718929,54.9512428 L51.9718929,58.5487572 C52.8028681,58.4372849 53.6034417,58.1434034 54.3026769,57.6873805 L51.9718929,54.9512428 Z M55.457935,56.7043977 C56.2281071,55.8531549 56.7246654,54.7789675 56.8665392,53.6439771 L52.8535373,53.6439771 L55.457935,56.7043977 Z M55.3971319,51.576673 C58.4778203,51.576673 61.3355641,50.026195 62.9975143,47.442065 C65.7235182,43.2466539 64.5277247,37.6426386 60.3323136,34.9166348 C60.1803059,35.2206501 60.0080306,35.5246654 59.8458891,35.8185468 C59.7141491,36.0516252 59.5722753,36.2847036 59.4405354,36.517782 C59.9472275,36.8623327 60.4032505,37.2575526 60.8086042,37.7135755 C63.4636711,40.6929254 63.2001912,45.2734226 60.2208413,47.9284895 C57.2414914,50.5835564 52.6609943,50.3200765 50.0059273,47.3407266 C49.5195029,47.7055449 49.0229446,48.0703633 48.5263862,48.414914 C50.2491396,50.4214149 52.7521989,51.576673 55.3971319,51.576673 Z M51.8097514,46.9556405 C52.6305927,47.6143403 53.6034417,48.0399618 54.6472275,48.1818356 L54.6472275,44.2803059 L51.8097514,46.9556405 Z M56.167304,44.5843212 L56.167304,48.1818356 C56.9982792,48.0703633 57.7988528,47.7764818 58.498088,47.3204589 L56.167304,44.5843212 Z M59.6533461,46.3374761 C60.4235182,45.4862333 60.9200765,44.4221797 61.0619503,43.2770554 L57.0489484,43.2770554 L59.6533461,46.3374761 Z M57.3124283,41.756979 L61.0619503,41.756979 C60.9403442,40.8347992 60.5856597,39.943021 60.0384321,39.1829828 L57.3124283,41.756979 Z M57.6671128,39.3349904 L58.9946463,38.0783939 C58.883174,37.9871893 58.7615679,37.8959847 58.6399618,37.814914 C58.3562141,38.2709369 58.0623327,38.7066922 57.7583174,39.1424474 C57.7380497,39.2032505 57.7076482,39.2741874 57.6671128,39.3349904 Z M68.9764818,44.1181644 C69.1284895,38.1898662 67.1422562,32.4034417 63.3724665,27.8128107 C62.7137667,29.7787763 61.9334608,31.6940727 61.0214149,33.5586998 C62.1564054,34.2680688 63.149522,35.2003824 63.9399618,36.2847036 C67.3854685,41.0070746 66.3518164,47.6143403 61.6294455,51.059847 C61.9537285,52.9042065 61.7814532,54.7992352 61.1328872,56.5523901 C59.1061185,62.0347992 53.0156788,64.83174 47.5332696,62.8049713 C41.4833652,63.8994264 35.2814532,62.0854685 30.7718929,57.910325 L30.7212237,58.1636711 C30.3260038,59.9573614 29.7179732,61.7003824 28.8971319,63.3521989 C33.2445507,66.6862333 38.5648184,68.5001912 44.0472275,68.4900574 C44.4627151,68.4900574 44.8883365,68.4799235 45.3038241,68.4596558 C58.3562141,67.800956 68.6826004,57.1806883 68.9764818,44.1181644 Z M59.6432122,29.3835564 C59.3391969,29.6875717 58.8426386,29.6875717 58.5386233,29.3835564 C58.234608,29.0795411 58.234608,28.5829828 58.5386233,28.2789675 C58.8426386,27.9749522 59.3391969,27.9749522 59.6432122,28.2789675 C59.9472275,28.5829828 59.9472275,29.0795411 59.6432122,29.3835564 Z" id="Combined-Shape" fill="url(#linearGradient-1)" fill-rule="nonzero"></path>
            </g>
        </g>
    </g>
</svg>