<?xml version="1.0" encoding="UTF-8"?>
<svg width="100px" height="100px" viewBox="0 0 100 100" version="1.1" xmlns="http://www.w3.org/2000/svg" xmlns:xlink="http://www.w3.org/1999/xlink">
    <!-- Generator: Sketch 54.1 (76490) - https://sketchapp.com -->
    <title>Okike NG</title>
    <desc>Created with Sketch.</desc>
    <g id="Page-1" stroke="none" stroke-width="1" fill="none" fill-rule="evenodd">
        <g id="Desktop-HD-Copy" transform="translate(-668.000000, -21.000000)" fill-rule="nonzero">
            <g id="Okike-NG" transform="translate(668.000000, 12.000000)">
                <path d="M10.2303488,80.5267464 C8.47973563,80.6648358 6.67540268,80.5037338 4.81729576,80.0434354 C0.686463005,79.0614659 -0.787715413,75.9429922 0.394716264,70.6879205 C1.57714794,65.4328489 5.99200519,62.0382003 13.6394205,60.5038729 L13.7545918,60.5038729 C15.7662613,60.1816639 17.8777147,60.2430361 20.0890155,60.6879911 C24.2352045,61.5625577 25.7938411,64.6426739 24.764972,69.9284321 C23.7361028,75.2141902 19.4210598,78.7392549 11.8197133,80.5037314 C11.2515318,80.5344179 10.7217489,80.5420895 10.2303488,80.5267464 Z M11.4741992,76.4991568 C11.7045431,76.4991568 11.9502395,76.4914853 12.2112958,76.4761419 C15.7278783,75.478829 17.7241616,73.4803975 18.2002055,70.4807873 C18.6762495,67.4811771 17.9545163,65.7359058 16.0349844,65.244921 C15.0214715,64.9840853 14.0463639,64.9457277 13.1096323,65.129847 L13.0635637,65.129847 C9.51626871,66.0044136 7.47007837,67.9338016 6.92493128,70.9180684 C6.37978421,73.9023355 7.05928832,75.6706212 8.96346402,76.2229791 C9.83877057,76.4838148 10.675674,76.5758732 11.4741992,76.4991568 Z M33.2133289,74.2795108 C32.4063702,76.7655302 31.8078848,78.4183722 31.4178547,79.2380867 C30.7184906,80.0174875 29.9384423,80.5214028 29.0776863,80.7498477 C28.6876562,80.8707893 28.4119495,80.931259 28.2505579,80.931259 C27.2822073,80.931259 26.6635482,80.2593721 26.3945621,78.9155778 C26.260069,78.0421116 26.1928234,77.5381962 26.1928234,77.4038168 C26.2062728,76.0600225 27.0468421,73.238097 28.7145568,68.9379555 C30.3822712,64.6378141 31.9692661,60.9760296 33.4755889,57.9524927 C34.2690983,56.4877569 35.5131411,54.6333487 37.2077543,52.3892123 C38.0819593,51.5694978 38.6535464,51.1596469 38.9225327,51.1596469 C39.3798093,51.2537124 39.6084441,51.4687163 39.6084441,51.8046649 L39.6084441,52.852819 C39.5949948,54.6803792 38.6871799,57.8382483 36.8849723,62.326521 C36.8446243,62.3937107 36.683235,62.8505939 36.4007995,63.6971842 L35.7148881,65.9345905 C37.355704,64.3757892 38.8283815,63.1798302 40.1329647,62.3466778 C41.1551123,61.7285325 42.5739933,61.0499267 44.3896503,60.3108398 C45.196609,60.1227086 45.6740524,60.0756765 45.8219948,60.169742 C46.0371838,60.3981872 46.0775313,60.613191 45.9430382,60.8147602 L45.5193868,61.4597781 C44.7931241,62.5751272 43.0447398,64.1742185 40.2741819,66.2570993 C40.2203846,66.2839754 39.9514023,66.4989793 39.4672271,66.9021175 L36.4613212,69.9861099 C36.3940746,70.0398615 36.3335535,70.1003314 36.2797565,70.1675211 C36.9925698,70.9737977 37.8129654,71.9211584 38.7409679,73.0096317 C42.3453833,77.363525 45.2772893,80.3870165 47.5367735,82.0801973 L47.8999029,82.8259994 C48.0074975,83.0678825 47.9268028,83.3164805 47.6578165,83.5718015 C47.4695264,83.6793051 46.9382865,83.6053975 46.0640812,83.3500766 C43.8718436,82.758807 42.0293154,81.939105 40.5364419,80.8909453 C39.0435686,79.8427859 37.0463758,78.1294739 34.5448039,75.7509582 C34.0606288,75.2268786 33.616808,74.7364009 33.2133289,74.2795108 Z M54.0875954,63.8870479 L54.2258009,63.8870479 C54.76327,63.8870479 55.1011024,64.4547405 55.2393089,65.590143 C55.3314463,66.096471 55.3775143,66.4800472 55.3775143,66.7408829 C55.3775143,69.0730605 54.0568962,72.6710044 51.4156203,77.5348225 L50.1948039,80.4577018 C50.2408727,80.7645674 50.2639069,81.010056 50.2639069,81.1941753 L50.2639069,81.2632199 C50.2639069,81.8155778 49.810904,82.0917524 48.904885,82.0917524 C47.5688907,82.0917524 46.7243094,80.6571777 46.3711156,77.7879853 C46.3711156,75.6552702 47.4844274,72.8628361 49.7110843,69.4105991 C52.0452352,66.4493473 53.2967512,64.6772255 53.4656702,64.0941811 C53.6345889,63.9560917 53.8418952,63.8870479 54.0875954,63.8870479 Z M63.4055617,75.6843236 C62.5497516,78.320841 61.9150353,80.0737422 61.5013935,80.9430804 C60.7596917,81.7696642 59.9324208,82.3040854 59.0195568,82.5463598 C58.6059153,82.6746229 58.3135177,82.7387536 58.1423556,82.7387536 C57.1153836,82.7387536 56.4592724,82.026192 56.1740023,80.6010475 C56.0313673,79.6747036 55.9600508,79.1402825 55.9600508,78.9977678 C55.9743143,77.5726233 56.8657699,74.579865 58.634444,70.0194026 C60.4031184,65.45894 62.0861863,61.5754797 63.6836987,58.3689046 C64.525245,56.8154972 65.8445993,54.8488273 67.6418006,52.4688359 C68.5689281,51.5994978 69.175118,51.1648352 69.4603879,51.1648352 C69.945347,51.2645953 70.187823,51.492615 70.187823,51.8489011 L70.187823,52.9605083 C70.1735595,54.8987048 69.2107874,58.2477442 67.2994783,63.0077267 C67.2566878,63.078984 67.0855281,63.5635258 66.7859946,64.4613669 L66.0585598,66.8342205 C67.798707,65.181053 69.3605371,63.9126934 70.7440966,63.0291038 C71.8281229,62.3735372 73.3328997,61.65385 75.2584724,60.8700206 C76.1142826,60.6705004 76.6206293,60.620621 76.7775278,60.7203814 C77.0057439,60.9626558 77.0485338,61.1906756 76.9058986,61.4044473 L76.4566007,62.0885132 C75.6863717,63.271383 73.832144,64.9672795 70.8938627,67.1762535 C70.8368086,67.2047565 70.551543,67.432776 70.038057,67.8603194 L66.8501801,71.1310096 C66.7788627,71.1880154 66.7146778,71.252146 66.6576238,71.3234033 C67.4135895,72.1784898 68.2836501,73.1832016 69.2678316,74.3375686 C73.0904501,78.9550367 76.1998468,82.1615639 78.5961153,83.957246 L78.9812279,84.7481971 C79.0953359,85.0047231 79.0097561,85.268371 78.7244862,85.5391485 C78.5247972,85.6531601 77.9613973,85.5747782 77.0342697,85.3040007 C74.7093188,84.6769371 72.7552483,83.807612 71.1719996,82.6959993 C69.5887508,81.5843865 67.4706525,79.7673547 64.8176413,77.244849 C64.3041553,76.6890427 63.8334666,76.1688728 63.4055617,75.6843236 Z M77.8587962,70.6994279 C79.0412279,65.4366847 83.4560852,62.0382003 91.1035003,60.5038729 C95.2036206,60.4424996 97.4494394,60.9948493 97.8410239,62.1609381 C98.2326085,63.3270272 98.2326085,64.5621421 97.8410239,65.8663205 C97.4494394,67.1704987 96.4244246,68.6204165 94.765949,70.2161172 C93.1074734,71.8118178 89.8903863,73.0085752 85.1145906,73.8064254 C85.1760156,76.015857 87.0456117,76.5835498 90.723435,75.5095205 C94.4012582,74.4354913 96.8275101,73.7757402 98.0022638,73.5302479 C99.1770172,73.2847556 99.664571,73.6414813 99.4649398,74.6004359 C99.2653084,75.5593907 97.3803564,76.9556078 93.8100269,78.789129 C90.2396974,80.6226504 86.3930133,81.0445841 82.2698586,80.054943 C78.1467039,79.0653017 76.6763645,75.946828 77.8587962,70.6994279 Z M89.1225535,64.9457285 C87.0187464,65.9430414 85.5829581,67.6461194 84.8151451,70.0550136 L85.1145906,70.8145018 C91.1803117,68.6050702 93.8944892,66.8214414 93.2572044,65.4635615 C92.6199198,64.1056818 91.2417166,63.9330725 89.1225535,64.9457285 Z M60.0074024,51.4130279 L60.6984304,51.4130279 C60.9748429,51.5664607 61.1130472,51.7735917 61.1130472,52.0344274 L61.1130472,52.1034717 C61.0669784,52.732546 59.4699518,55.1183895 56.3219193,59.2610738 C55.6001754,60.1663269 55.0089684,60.6189468 54.5482806,60.6189468 C54.5482806,60.7110063 54.2104482,60.7570354 53.5347729,60.7570354 C52.5366162,60.5882595 52.0375456,60.1586542 52.0375456,59.4682069 L52.0375456,58.3634967 C52.0375456,57.5042732 52.8590928,56.1387423 54.5022123,54.2668629 C55.9764128,53.2542066 57.4736251,52.4410251 58.9938944,51.8272942 C59.3163757,51.7966077 59.6542084,51.6585204 60.0074024,51.4130279 Z M92.3014594,56.2927371 L92.8308176,56.7365459 C92.943854,57.0316067 92.9164706,57.279039 92.7486668,57.4788509 L92.7042483,57.5317419 C92.2642544,57.9840533 89.505973,58.7860344 84.4293212,59.9377087 C83.2940553,60.1676371 82.5499799,60.1346645 82.1970728,59.8387907 C82.137848,59.9093124 81.8494412,59.7276018 81.331844,59.2936531 C80.6757907,58.5233029 80.5698587,57.8736807 81.0140451,57.3447674 L81.7247399,56.4985102 C82.2775055,55.8403071 83.7853363,55.3218836 86.2482775,54.9432248 C88.0290542,55.114282 89.6991305,55.4529249 91.2585569,55.959164 C91.5253336,56.1427685 91.8729641,56.2539584 92.3014594,56.2927371 Z" id="Combined-Shape" fill="#ED1C23"></path>
                <path d="M12.1015991,100.377446 C12.3596239,99.8613967 12.6606529,99.7323845 13.3917232,99.431356 C30.3783578,92.163667 59.750184,83.1758152 77.467889,79.0044198 C78.2419634,78.8324036 78.8440213,78.8324036 79.2310586,79.2624443 C79.7041042,79.7784931 79.6180959,80.5955707 79.4890834,81.1116195 C78.8870255,83.64886 73.5115084,101.667568 48.0530586,107.817151 C31.367453,111.859534 16.0149757,106.355012 12.5746446,102.0116 C12.5746446,102.0116 11.757566,101.194523 12.1015991,100.377446 Z M55.9806029,101.120791 C62.0388276,98.7476988 67.8561003,94.1734784 71.091743,87.3637369 C72.0211298,85.4033568 69.3362346,84.3715778 68.5789565,86.7102768 C66.6857614,91.5596384 62.8305273,97.2344229 55.9806029,101.120791 Z" id="Combined-Shape" fill="#FAAF18" transform="translate(45.803856, 94.061787) rotate(20.000000) translate(-45.803856, -94.061787) "></path>
                <path d="M48.3135051,26.7984438 C48.791525,27.7232727 47.6975411,28.4621907 46.9252936,27.8560101 C45.2603967,26.5487242 43.9455426,24.7439685 42.6362703,23.1058237 C41.6307938,21.8477727 40.2250403,20.5148846 39.6852246,18.9862384 C39.0780314,17.2657729 41.2823455,16.5107059 42.4429094,17.4004796 C43.7139085,18.3749374 44.4853586,20.3789962 45.2902977,21.7225191 C46.2977679,23.4043844 47.4144766,25.0586781 48.3135051,26.7984438 Z M40.9225667,29.6822985 C41.6002901,30.2280511 40.8655953,31.2636422 40.1130972,31.0659742 C37.2989435,30.3264912 33.9831245,28.8935958 31.8205823,26.9003786 C30.478192,25.6627883 32.1901056,23.6231073 33.7196315,24.4507925 C34.9785428,25.1319987 36.132611,26.1534142 37.3116038,26.9704678 C38.5602289,27.8359543 39.7408044,28.7297913 40.9225667,29.6822985 Z M33.2850416,35.702286 C33.838811,35.8491333 33.9054388,36.5609554 33.4394428,36.8461479 C31.5431419,38.0046944 25.9823085,38.8965974 25.3311907,35.8290385 C25.1029802,34.7543493 26.2751519,33.626718 27.3627421,34.3161267 C26.960581,34.0610764 28.2332931,34.5452853 28.2887496,34.5704041 C28.7156469,34.7640103 29.2011923,34.8814882 29.6612039,34.9738473 C30.8792571,35.2184634 32.0841444,35.3830868 33.2850416,35.702286 Z M77.9033133,12.6176754 C78.638734,12.5092221 79.3893706,13.0586394 79.1576251,13.8948818 C78.7120811,15.4998318 77.0336829,16.6963934 76.0489605,17.9938604 C74.9089606,19.4955214 73.7701313,21.0035387 72.4951417,22.3907875 C71.8151213,23.1304946 70.5175036,22.1444833 71.1023288,21.2967202 C72.2801726,19.5904677 73.2091046,17.7280902 74.3721229,16.0134952 C75.2390223,14.7358915 76.2635395,12.8588152 77.9033133,12.6176754 Z M85.7525596,16.6236006 C87.5481489,15.747038 89.3827726,17.9206282 87.9211457,19.4461005 C86.6290627,20.7949933 85.5388555,22.0924168 84.4462824,23.6147218 C83.4554359,24.9948921 82.3573429,26.3453686 80.8211953,27.1233476 C79.5752442,27.754441 78.3978993,26.2479728 79.3414313,25.1976022 C81.5880863,22.6969837 82.6081101,18.1593668 85.7525596,16.6236006 Z M100.238238,23.4559289 C101.849122,23.4041993 102.411077,25.3426767 101.467119,26.4242594 C100.241789,27.8280662 97.7548238,28.090268 96.046071,28.6213849 C94.3136401,29.1600042 92.4995208,29.7092856 91.4936059,31.3322521 C90.8941613,32.2997137 89.1897493,31.9676178 89.2580206,30.7265027 C89.3874594,28.3714243 91.2197319,26.7915001 93.2852313,25.9101226 C94.5160859,25.3849291 95.7694345,24.9367377 97.0231777,24.4703816 C98.0926282,24.0723402 99.0839416,23.4930478 100.238238,23.4559289 Z" id="Combined-Shape" fill="#ED1C23" transform="translate(63.614258, 25.263391) rotate(20.000000) translate(-63.614258, -25.263391) "></path>
                <path d="M49.6245632,29.5632524 C49.4277847,29.1801238 49.2918057,28.696565 49.2166248,28.1125746 C48.9780372,26.2592705 50.0141327,24.6292437 52.3249425,23.2224451 L52.3624878,23.2087913 C52.9800176,22.8652656 53.675628,22.6349556 54.4493394,22.5178543 C55.9048313,22.3114193 56.7787103,23.1307407 57.0710026,24.9758432 C57.2625877,26.1852294 56.9040981,27.3153953 55.9955254,28.3663553 C60.2642677,27.8045354 64.4763025,27.7188174 68.1409692,28.1060988 C84.3816987,29.8671687 88.9979267,37.6661923 88.9979267,37.6661923 C88.9979267,37.6661923 89.5854464,38.3370759 89.2916865,39.0498902 C89.0818581,39.5530528 88.6202353,39.7207738 88.0327153,39.8465646 C80.5628192,41.1044716 68.8543863,43.4106345 54.6280111,47.1843555 C44.6401724,49.8259603 28.8191001,55.0672399 23.4894551,56.8702399 C22.8599695,57.079891 22.3563809,57.079891 22.0206553,56.6605888 C21.6849296,56.2412864 21.8108267,55.2349606 21.8947581,54.8995189 C21.8947581,54.8995189 24.1609064,41.5237738 39.2685616,33.4312386 C42.3487438,31.7681026 45.913329,30.4794859 49.6245632,29.5632524 Z M52.661265,28.9015181 C52.8702945,28.8618329 53.0794944,28.8232934 53.2888068,28.785899 C53.3682045,28.7594568 53.4447939,28.7286606 53.518575,28.6935106 C53.5936659,28.6662029 53.6728506,28.6345743 53.7561314,28.5986239 C54.7840843,27.8566074 55.1975426,26.9684663 54.9965185,25.934174 C54.7954944,24.8998817 54.3529578,24.4164958 53.6688952,24.4840018 C53.3075208,24.5191247 52.9850859,24.6222213 52.7015814,24.7932946 L52.6865632,24.7987561 C51.6340217,25.5043989 51.1960948,26.3759486 51.3727697,27.4134316 C51.5489262,28.4478717 51.978419,28.9438961 52.6612605,28.9015189 L52.661265,28.9015181 Z M38.6899364,35.2508444 C31.1859991,38.5525374 26.1260046,46.4284507 25.8506307,49.7301436 C25.7473655,51.0370639 27.5028737,51.2434196 27.6749826,49.8333215 C29.2583821,43.7802179 34.0774245,38.0710407 38.6899364,35.2508444 Z" id="Combined-Shape" fill="#16A085" transform="translate(55.587137, 39.747323) rotate(20.000000) translate(-55.587137, -39.747323) "></path>
                <path d="M86.7583589,91.4798242 C87.3523325,91.4798242 87.8968002,91.6249994 88.3917785,91.9153538 C88.8867564,92.2057081 89.2779429,92.5997546 89.5653496,93.0975049 C89.8527562,93.5952554 89.9964575,94.1376675 89.9964575,94.7247576 C89.9964575,95.3054664 89.8527562,95.8462832 89.5653496,96.3472244 C89.2779429,96.8481655 88.8851597,97.2469978 88.3869884,97.5437338 C87.8888168,97.8404695 87.339559,97.9888352 86.7391987,97.9888352 C86.1452248,97.9888352 85.6007571,97.8420649 85.1057791,97.5485198 C84.6108009,97.2549748 84.2212111,96.8593329 83.9369978,96.3615824 C83.6527846,95.8638322 83.5106802,95.3246105 83.5106802,94.7439017 C83.5106802,94.163193 83.6543813,93.6223762 83.9417879,93.121435 C84.2291946,92.6204941 84.6203811,92.2216615 85.1153593,91.9249258 C85.6103373,91.6281898 86.1579984,91.4798242 86.7583589,91.4798242 Z M86.7391987,97.2709295 C87.2118227,97.2709295 87.6445229,97.1560658 88.0373121,96.9263349 C88.4301011,96.696604 88.739857,96.38711 88.9665888,95.9978437 C89.1933207,95.6085774 89.3066849,95.1842194 89.3066849,94.7247576 C89.3066849,94.2652958 89.1949174,93.8425335 88.9713789,93.4564578 C88.7478404,93.070382 88.441278,92.7640787 88.0516824,92.5375385 C87.6620867,92.3109982 87.2309832,92.1977298 86.7583589,92.1977298 C86.2857346,92.1977298 85.8546311,92.3125936 85.4650355,92.5423245 C85.0754399,92.7720554 84.7672808,93.0815496 84.5405489,93.4708159 C84.313817,93.8600822 84.2004525,94.2844399 84.2004525,94.7439017 C84.2004525,95.2033638 84.3122203,95.6261262 84.5357588,96.0122018 C84.7592973,96.3982774 85.0642631,96.7045807 85.4506653,96.9311209 C85.8370676,97.1576611 86.2665744,97.2709295 86.7391987,97.2709295 Z M88.1283238,94.1504331 C88.1283238,94.392927 88.0772299,94.5987244 87.975041,94.7678321 C87.872852,94.9369395 87.7259573,95.0661613 87.5343528,95.1555009 L88.2145453,96.1892851 L87.4193909,96.1892851 L86.9212219,95.2895101 L86.212289,95.2895101 L86.212289,96.1892851 L85.5225166,96.1892851 L85.5225166,93.0783608 L86.8445805,93.0783608 C87.2533366,93.0783608 87.5694792,93.1724851 87.7930177,93.3607369 C88.0165562,93.5489887 88.1283238,93.812218 88.1283238,94.1504331 Z M86.212289,94.7343297 L86.8445805,94.7343297 C87.0425717,94.7343297 87.1958529,94.6864697 87.3044289,94.5907485 C87.4130046,94.4950273 87.4672918,94.357829 87.4672918,94.1791493 C87.4672918,94.0004698 87.4130046,93.8648666 87.3044289,93.7723361 C87.1958529,93.6798058 87.0425717,93.6335412 86.8445805,93.6335412 L86.212289,93.6335412 L86.212289,94.7343297 Z" id="®" fill="#ED1C23"></path>
            </g>
        </g>
    </g>
</svg>