<?xml version="1.0" encoding="UTF-8"?>
<svg width="309px" height="313px" viewBox="0 0 309 313" version="1.1" xmlns="http://www.w3.org/2000/svg" xmlns:xlink="http://www.w3.org/1999/xlink">
    <!-- Generator: Sketch 54.1 (76490) - https://sketchapp.com -->
    <title>Combined Shape</title>
    <desc>Created with Sketch.</desc>
    <g id="Page-2" stroke="none" stroke-width="1" fill="none" fill-rule="evenodd">
        <g id="Desktop-HD" transform="translate(-566.000000, -286.000000)" fill="#FFFFFF" fill-rule="nonzero">
            <path d="M597.673488,505.283175 C592.253533,505.711066 586.667261,505.211867 580.914502,503.785563 C568.125311,500.742782 563.561208,491.079719 567.222054,474.796084 C570.882901,458.512449 584.55144,447.993617 608.228083,443.239271 L608.584657,443.239271 C614.81285,442.240858 621.349978,442.431029 628.196236,443.809789 C641.03297,446.519767 645.858558,456.063973 642.673147,472.442695 C639.487735,488.821416 626.128223,499.744362 602.594211,505.21186 C600.835103,505.306947 599.194878,505.330718 597.673488,505.283175 Z M601.524488,492.803079 C602.23764,492.803079 602.998324,492.779308 603.806563,492.731764 C614.694015,489.641439 620.874572,483.448997 622.348419,474.154251 C623.822267,464.859504 621.587758,459.451517 615.644825,457.930126 C612.506957,457.121887 609.487993,457.003031 606.587842,457.573552 L606.445212,457.573552 C595.462673,460.283529 589.127602,466.26203 587.439809,475.509232 C585.752016,484.756435 587.855783,490.235737 593.751172,491.947301 C596.461149,492.75554 599.052229,493.040796 601.524488,492.803079 Z M668.82953,485.92517 C666.33116,493.628478 664.47823,498.750059 663.270685,501.290068 C661.105431,503.705159 658.690376,505.266617 656.025448,505.974489 C654.817903,506.349244 653.964306,506.536619 653.464632,506.536619 C650.466588,506.536619 648.5512,504.454675 647.71841,500.290725 C647.302015,497.584158 647.093821,496.0227 647.093821,495.606305 C647.13546,491.442356 649.73789,482.698192 654.901187,469.373553 C660.064485,456.048913 664.977872,444.70232 669.641496,435.333433 C672.098226,430.794728 675.949822,425.048564 681.196399,418.094767 C683.902966,415.554758 685.672618,414.284772 686.505408,414.284772 C687.921151,414.576249 688.629012,415.242471 688.629012,416.283458 L688.629012,419.531323 C688.587373,425.194295 685.776749,434.97943 680.197056,448.887022 C680.072137,449.09522 679.572471,450.510941 678.698042,453.13423 L676.574438,460.067172 C681.654456,455.23699 686.213913,451.53113 690.252944,448.949481 C693.417546,447.034064 697.810447,444.931301 703.43178,442.641129 C705.93015,442.058176 707.40833,441.91244 707.866364,442.203916 C708.532596,442.911788 708.657513,443.57801 708.241118,444.202602 L706.92948,446.201288 C704.680947,449.657366 699.267894,454.612392 690.690157,461.066514 C690.523599,461.149793 689.690822,461.816015 688.1918,463.0652 L678.885418,472.621417 C678.677221,472.787975 678.489846,472.97535 678.323288,473.183548 C680.530181,475.681918 683.070153,478.617458 685.943278,481.990258 C697.102663,495.481455 706.179938,504.850201 713.175373,510.096778 L714.299634,512.407759 C714.63275,513.15727 714.382917,513.927589 713.550127,514.718739 C712.967174,515.051855 711.322439,514.822842 708.615871,514.031691 C701.828633,512.199553 696.124107,509.659582 691.502123,506.411701 C686.880139,503.16382 680.696766,497.854864 672.95182,490.484673 C671.452798,488.860732 670.078715,487.340913 668.82953,485.92517 Z M733.456928,453.722551 L733.884817,453.722551 C735.548838,453.722551 736.594778,455.481633 737.02267,458.999849 C737.30793,460.568783 737.450559,461.757351 737.450559,462.56559 C737.450559,469.792196 733.361882,480.94097 725.184407,496.012247 L721.404721,505.06923 C721.547352,506.020099 721.618666,506.780783 721.618666,507.351305 L721.618666,507.565249 C721.618666,509.276814 720.216155,510.132583 717.411091,510.132583 C713.27481,510.132583 710.659959,505.687337 709.566459,496.79671 C709.566459,490.188169 713.013308,481.535389 719.90711,470.838111 C727.133716,461.662223 731.008449,456.171036 731.531428,454.364385 C732.054406,453.936493 732.696233,453.722551 733.456928,453.722551 Z M762.30565,490.278195 C759.656035,498.447843 757.690933,503.879473 756.410285,506.573249 C754.113952,509.134544 751.552695,510.790529 748.726438,511.541253 C747.445791,511.938696 746.540519,512.137414 746.010596,512.137414 C742.831057,512.137414 740.799716,509.929434 739.916511,505.513408 C739.474908,502.642991 739.25411,500.987007 739.25411,500.545404 C739.29827,496.129378 742.058245,486.855863 747.534117,472.72458 C753.009989,458.593297 758.220822,446.559807 763.166771,436.623749 C765.772226,431.810281 769.856989,425.716256 775.421181,418.341493 C778.291598,415.647717 780.168381,414.300849 781.051586,414.300849 C782.553035,414.609971 783.303748,415.316525 783.303748,416.420531 L783.303748,419.865014 C783.259588,425.870809 780.278815,436.248315 774.361341,450.997841 C774.22886,451.218642 773.698945,452.720069 772.771579,455.502165 L770.519417,462.854811 C775.906969,457.732221 780.742445,453.802017 785.02599,451.064081 C788.382169,449.032709 793.041007,446.80265 799.002642,444.373835 C801.652257,443.755592 803.219923,443.601033 803.705686,443.910155 C804.41225,444.660879 804.544729,445.367433 804.103126,446.029837 L802.712085,448.149519 C800.327431,451.81482 794.586683,457.069812 785.48967,463.914652 C785.313029,464.002973 784.429837,464.709526 782.840068,466.034334 L772.970299,476.169063 C772.749498,476.345704 772.55078,476.544422 772.374139,476.765223 C774.714633,479.414839 777.408368,482.528091 780.455426,486.105072 C792.290375,500.412995 801.917167,510.348905 809.336091,515.913097 L810.528412,518.363979 C810.881694,519.158864 810.616736,519.975817 809.733531,520.814862 C809.115287,521.168144 807.370983,520.925266 804.500567,520.086221 C797.302444,518.143169 791.25258,515.449434 786.350791,512.004934 C781.449002,508.560434 774.891302,502.930085 766.677494,495.113719 C765.087725,493.391469 763.630458,491.779644 762.30565,490.278195 Z M807.053327,474.831741 C810.714174,458.524335 824.382713,447.993617 848.059356,443.239271 C860.753459,443.049097 867.706586,444.760636 868.918944,448.373939 C870.131302,451.987242 870.131302,455.814433 868.918944,459.855627 C867.706586,463.896821 864.533108,468.38961 859.398414,473.33413 C854.263721,478.27865 844.303515,481.986984 829.5175,484.459244 C829.707673,491.305502 835.496003,493.064584 846.882661,489.736541 C858.26932,486.408499 865.781073,484.364161 869.418148,483.603466 C873.055223,482.84277 874.564705,483.948139 873.94664,486.919605 C873.328575,489.891072 867.492703,494.217462 856.438849,499.898905 C845.384994,505.580348 833.475537,506.887774 820.710118,503.821221 C807.944699,500.754668 803.392481,491.091604 807.053327,474.831741 Z M841.92628,457.003033 C835.412826,460.093358 830.96758,465.370603 828.590407,472.834926 L829.5175,475.188316 C848.297166,468.342057 856.700346,462.815213 854.727293,458.607617 C852.754239,454.400021 848.487278,453.865165 841.92628,457.003033 Z M751.78484,415.069912 L753.924285,415.069912 C754.780067,415.545347 755.207952,416.187174 755.207952,416.995413 L755.207952,417.209357 C755.065321,419.158639 750.120876,426.551536 740.374467,439.38827 C738.139924,442.193334 736.309528,443.595845 734.883225,443.595845 C734.883225,443.881106 733.837284,444.023734 731.745372,444.023734 C728.655047,443.500756 727.109908,442.169559 727.109908,440.030103 L727.109908,436.606991 C727.109908,433.944558 729.653445,429.713253 734.740595,423.912951 C739.304767,420.775083 743.940185,418.255317 748.646987,416.353579 C749.6454,416.258492 750.69134,415.830607 751.78484,415.069912 Z M851.768275,430.19043 L853.407185,431.565638 C853.757149,432.479928 853.672369,433.246636 853.152843,433.865782 L853.015323,434.029673 C851.653087,435.431229 843.11336,437.916288 827.395883,441.484926 C823.881064,442.197393 821.577383,442.095223 820.484771,441.178413 C820.301409,441.396935 819.408492,440.833877 817.805994,439.489222 C815.774832,437.102175 815.446864,435.089223 816.822079,433.450305 L819.022413,430.828049 C820.733793,428.788506 825.402085,427.182093 833.02743,426.008761 C838.540772,426.538808 843.711382,427.588144 848.539416,429.156803 C849.365365,429.725729 850.441641,430.070268 851.768275,430.19043 Z M731.586271,342.958751 C731.49105,341.492213 731.655234,339.816873 732.078823,337.932729 C733.632867,331.020259 739.435218,326.554972 749.48605,324.536733 L749.637417,324.536733 C752.28131,324.112902 755.056348,324.193631 757.962612,324.77892 C763.411858,325.929316 765.46034,329.980871 764.10812,336.933705 C763.248747,341.35242 760.644975,344.835715 756.296759,347.383626 C767.480907,350.18762 778.017173,353.949589 786.960036,358.318597 C832.343106,380.64384 837.507768,408.241028 837.507768,408.241028 C837.507768,408.241028 838.506048,410.816622 836.895965,412.581115 C835.752255,413.824026 834.231496,413.823577 832.3889,413.567724 C809.323462,409.32056 772.815828,403.637477 727.427378,399.561337 C695.569999,396.676933 643.986747,395.185367 626.570291,394.791717 C624.516728,394.735609 623.051629,394.202357 622.519273,392.625939 C621.986917,391.049521 623.419697,388.252636 624.019382,387.364778 C624.019382,387.364778 644.787959,350.817191 697.317418,343.251086 C708.053589,341.668201 719.804461,341.692466 731.586271,342.958751 Z M741.747837,344.352802 C743.791963,344.693186 745.82841,345.068165 747.851957,345.475801 C752.322861,344.141435 754.865579,341.536282 755.48019,337.660268 C756.105844,333.71461 755.157286,331.418897 752.634487,330.773061 C751.302449,330.42996 750.020886,330.379505 748.78976,330.621694 L748.729214,330.621694 C744.067081,331.77209 741.377817,334.309988 740.661343,338.235463 C740.126461,341.166012 740.488622,343.205115 741.747837,344.352802 Z M693.705592,347.936669 C668.375111,349.604512 645.307073,367.179382 641.006785,376.50159 C639.321278,380.197706 644.209915,382.657486 646.205057,378.733837 C657.226757,362.785203 677.297479,351.264245 693.705592,347.936669 Z M716.810168,322.308991 C717.220745,325.508068 713.254891,326.501208 711.650608,323.918407 C708.192356,318.34891 706.279709,311.701553 704.206727,305.545241 C702.614759,300.817369 699.937571,295.447732 699.987136,290.425037 C700.04397,284.772461 707.257242,284.908032 709.690709,288.727784 C712.355718,292.911058 712.476208,299.563329 713.394166,304.327726 C714.542774,310.291763 716.038413,316.291191 716.810168,322.308991 Z M692.251262,322.879838 C693.644585,325.186594 690.409604,327.424034 688.429835,326.051644 C681.026271,320.918511 672.898082,313.235096 668.718972,305.141359 C666.125131,300.116305 673.267289,295.989957 676.839985,300.019617 C679.780616,303.336208 682.05567,307.532394 684.619822,311.159916 C687.335226,315.002197 689.822607,318.854971 692.251262,322.879838 Z M663.651279,332.3213 C665.106742,333.335276 664.546193,335.478498 662.888215,335.81547 C656.143443,337.180899 639.019967,333.889528 640.376661,324.267999 C640.851681,320.897088 645.456967,318.854893 647.890477,322.013954 C646.990765,320.845454 650.180324,323.603045 650.315045,323.734908 C651.35184,324.750691 652.639944,325.606907 653.880381,326.362945 C657.164841,328.365017 660.495774,330.120225 663.651279,332.3213 Z M817.925138,312.350522 C820.17965,312.813471 821.781217,315.208106 820.220746,317.397663 C817.223588,321.599135 811.072476,323.305994 806.832547,326.041204 C801.924463,329.206559 797.013047,332.391661 791.833489,335.080931 C789.07115,336.514718 786.340943,332.269615 788.940846,330.42039 C794.175857,326.699384 798.852166,322.260202 804.052887,318.499205 C807.928978,315.697068 812.898953,311.316302 817.925138,312.350522 Z M836.515611,332.326503 C842.668534,331.675504 845.702465,339.947213 839.833429,342.841328 C834.64479,345.400813 830.098019,348.024199 825.306036,351.299884 C820.960641,354.269424 816.334703,357.038937 811.041058,357.677606 C806.747355,358.195867 804.918641,352.562666 808.77686,350.503329 C817.963253,345.601074 825.739799,333.468641 836.515611,332.326503 Z M871.418152,367.5597 C876.15955,369.114848 875.740055,375.354325 871.847519,377.504094 C866.794888,380.294162 859.281632,378.424175 853.747447,378.161262 C848.136425,377.895123 842.276445,377.573529 837.629897,381.234081 C834.860604,383.416362 830.253883,380.64456 831.767841,377.102999 C834.640335,370.382593 841.645404,367.722405 848.588685,367.343196 C852.726233,367.117307 856.847617,367.139449 860.9894,367.109118 C864.522617,367.082556 868.020598,366.445491 871.418152,367.5597 Z M603.066265,538.098123 C604.363851,536.868726 605.376367,536.811832 607.822314,536.709437 C664.944149,533.534765 759.921481,538.466102 815.888777,545.08129 C818.323109,545.400088 820.074687,546.03761 820.744944,547.69963 C821.574275,549.703161 820.45811,551.991236 819.535863,553.357245 C815.095314,560.107608 780.359974,606.881954 699.775901,597.830097 C646.948039,591.932151 608.116492,559.647375 602.710626,543.357332 C602.710626,543.357332 601.199424,540.112974 603.066265,538.098123 Z M729.936463,586.72629 C750.076773,586.231456 771.848836,579.072274 788.479323,562.670045 C793.260819,557.945983 786.543085,552.09862 781.861365,558.106511 C771.214099,570.222069 753.983852,582.663465 729.936463,586.72629 Z M804.867056,400.932863 C815.466595,402.061705 820.988926,403.695245 822.675014,399.321312 C825.502777,392.069204 807.81335,376.031965 788.126222,370.654451 C807.087163,379.061365 815.998784,390.774471 814.123588,395.926529 C812.996882,399.280682 809.029884,401.130524 804.867056,400.932863 Z" id="Combined-Shape"></path>
        </g>
    </g>
</svg>