<?xml version="1.0" encoding="UTF-8"?>
<svg width="87px" height="87px" viewBox="0 0 87 87" version="1.1" xmlns="http://www.w3.org/2000/svg" xmlns:xlink="http://www.w3.org/1999/xlink">
    <!-- Generator: Sketch 54.1 (76490) - https://sketchapp.com -->
    <title>Group 9</title>
    <desc>Created with Sketch.</desc>
    <defs>
        <linearGradient x1="0%" y1="32.4891256%" x2="123.65797%" y2="68.8582845%" id="linearGradient-1">
            <stop stop-color="#FFCD2C" offset="0%"></stop>
            <stop stop-color="#FF0663" offset="100%"></stop>
        </linearGradient>
    </defs>
    <g id="Page-1" stroke="none" stroke-width="1" fill="none" fill-rule="evenodd">
        <g id="Desktop-HD-Copy" transform="translate(-927.000000, -1097.000000)">
            <g id="Group-9" transform="translate(927.000000, 1097.000000)">
                <circle id="Oval-Copy-4" fill="#FFF2D8" cx="43.5" cy="43.5" r="43.5"></circle>
                <path d="M71.1412299,40.0446759 L69.0025504,36.3399706 L66.8623947,32.6399211 C66.6797995,32.3241269 66.3425436,32.1296086 65.977694,32.1296086 C65.6128444,32.1296086 65.275702,32.3240134 65.0931069,32.6398076 L63.3133722,35.7175802 C62.8108949,35.2255499 62.2464171,34.8651289 61.6376531,34.6679988 C61.1032671,34.4951694 60.2511565,34.3667396 59.2362092,34.7418091 C58.400564,34.7099003 57.4875883,34.9227009 56.5179491,35.3779396 C52.2967994,37.3525333 48.265853,38.3419309 44.3884318,38.3417038 C38.4951968,38.3413631 32.9582947,36.0547225 27.6625818,31.4659979 C27.6625818,31.4659979 27.6625818,31.4659979 27.6625818,31.4659979 C25.4523632,29.5512473 23.689548,29.9239321 22.835507,30.3168296 C20.9251849,31.1952848 19.7014115,33.8040786 19.7178768,36.9629289 C19.7322982,39.7373983 20.8000482,43.1490202 23.6570715,45.0691079 C23.0971358,45.8511556 22.804166,46.8865426 22.7834992,48.0551287 L18.0219451,48.0551287 C17.6567548,48.0551287 17.3192718,48.2499877 17.1367902,48.5662361 C16.9543087,48.8825981 16.9544222,49.2722025 17.1370173,49.5884509 L21.4174423,56.9967259 C21.6000375,57.3127472 21.9374069,57.507379 22.3023701,57.507379 C22.6673332,57.507379 23.0047027,57.3127472 23.1871843,56.9967259 L24.8162326,54.1775161 C26.3101515,56.294961 28.6595875,58.0896849 31.7767635,58.1654255 C32.2408594,58.1766674 32.7033656,58.182118 33.1643956,58.182118 C43.1652262,58.182118 52.4562295,55.565716 61.522282,50.2030061 C64.8256868,48.2501013 65.8081576,44.5710593 65.6311266,41.5775438 L70.2559615,41.5775438 C70.6210382,41.5775438 70.9585212,41.3827984 71.1410028,41.06655 C71.3237115,40.7505287 71.3237115,40.3609243 71.1412299,40.0446759 Z M21.7619657,36.9521413 C21.7501561,34.7022922 22.560933,32.6927238 23.6896616,32.1736676 C24.5902598,31.759422 25.6196285,32.4000947 26.3242322,33.010562 C35.0550728,40.5759959 44.7744025,42.3013382 55.244439,38.1538852 C55.2171859,38.1802298 55.1900465,38.206915 55.1626799,38.233146 C55.1281595,38.2663038 55.0935254,38.299121 55.059005,38.3320517 C55.0368619,38.351583 55.0155137,38.3716821 54.9953011,38.3926896 C54.9281905,38.45628 54.8608529,38.5195297 54.7935153,38.5823251 C54.7391228,38.6330838 54.6846168,38.6835019 54.6301108,38.7336929 C54.5603885,38.797851 54.4905527,38.8613278 54.4207169,38.9244639 C54.36746,38.9726109 54.3143166,39.0206443 54.2609462,39.0682235 C54.1890664,39.132268 54.1171866,39.1956313 54.0450797,39.2587674 C53.9931854,39.3043026 53.9412911,39.3498379 53.8892833,39.3948053 C53.8141104,39.4598719 53.7387105,39.5239164 53.6633105,39.587961 C53.6144822,39.6294083 53.5656539,39.6711962 53.5165985,39.7121893 C53.4351801,39.7804353 53.3535347,39.8475458 53.2718892,39.9145428 C53.2285115,39.9500853 53.1852474,39.9861955 53.1417561,40.0213973 C53.0475061,40.0978193 52.9529155,40.1729921 52.8583249,40.2479379 C52.8270975,40.2725792 52.7959836,40.2979017 52.7647562,40.3224294 C52.5094864,40.522739 52.252854,40.7172573 51.9949724,40.9059844 C51.9735107,40.9216549 51.9518218,40.9368711 51.9303601,40.9525416 C51.8240734,41.029872 51.7175595,41.1065211 51.6108186,41.1819211 C51.5741406,41.2078114 51.5372355,41.2330204 51.5005575,41.2586837 C51.4085786,41.3229554 51.3165997,41.3868864 51.2242802,41.4496818 C51.1818109,41.4785246 51.1391145,41.5067996 51.0966453,41.5354152 C51.0095492,41.5938956 50.9223396,41.6521489 50.8350164,41.7093803 C50.7899354,41.7389043 50.7446273,41.7678607 50.6995463,41.7970441 C50.6143806,41.8521179 50.5291014,41.9067374 50.4435951,41.9605621 C50.3968108,41.9899726 50.3500265,42.0190425 50.3031286,42.0481124 C50.2187579,42.1004609 50.1342735,42.1524687 50.0495621,42.2035681 C50.0020965,42.2322973 49.9545173,42.2606858 49.9069381,42.2890744 C49.8221131,42.339606 49.737061,42.3895698 49.6520089,42.4388523 C49.6048839,42.4662189 49.5576454,42.4933583 49.5104069,42.5203842 C49.4238786,42.5697803 49.3372367,42.6183815 49.2504813,42.6665285 C49.2044919,42.6920782 49.158616,42.7176279 49.112513,42.7427233 C49.0231459,42.7915516 48.9336652,42.8394715 48.8439574,42.8870507 C48.8003525,42.9102158 48.7568613,42.9334944 48.7131429,42.9563188 C48.618893,43.0054877 48.5245294,43.0537482 48.4299388,43.1015546 C48.390649,43.1214265 48.3513593,43.1416392 48.311956,43.1612841 C48.2083946,43.2129512 48.1046061,43.2633693 48.0005904,43.3133331 C47.9701579,43.3279816 47.9398389,43.3429707 47.9094064,43.3573921 C47.7854052,43.4163268 47.6609499,43.4738987 47.5363809,43.5304487 C47.5337692,43.5315842 47.5311574,43.5328333 47.5285457,43.5340824 C47.3800168,43.5632659 47.2389825,43.6251529 47.116344,43.7159962 C46.9667931,43.7802679 46.8169016,43.8430634 46.6664423,43.9039284 C46.6619001,43.9057453 46.6572444,43.9075622 46.6525887,43.909379 C46.5201845,43.962863 46.3875532,44.0149844 46.2545813,44.0657431 C46.2267605,44.0763037 46.1989397,44.08641 46.171119,44.0969705 C46.0611985,44.1384178 45.951051,44.1794109 45.8406763,44.2191548 C45.8029763,44.2326678 45.7651628,44.2457265 45.7274628,44.2590124 C45.6265131,44.2946684 45.5255634,44.3299837 45.4241595,44.36405 C45.3813496,44.3784714 45.3384261,44.3924385 45.2956162,44.4066328 C45.1989816,44.4385415 45.1022334,44.4701096 45.0051446,44.5006557 C44.9593823,44.515077 44.9135064,44.5291578 44.8676305,44.5432385 C44.7729263,44.5724219 44.677995,44.6011511 44.5829501,44.6289719 C44.5357116,44.6428255 44.4883595,44.656452 44.441121,44.6699649 C44.346871,44.6969908 44.2523939,44.7233354 44.1578033,44.7489987 C44.109997,44.7619438 44.0620771,44.774889 44.0142708,44.7876071 C43.9193395,44.8127026 43.8240675,44.8371167 43.7287956,44.8609631 C43.6813299,44.8728863 43.6338643,44.8848095 43.5863986,44.8962784 C43.4894233,44.9198977 43.392221,44.942495 43.294905,44.9647516 C43.2490291,44.9751986 43.2032668,44.9859862 43.1572774,44.9960926 C43.0557599,45.0185763 42.9540154,45.0401516 42.8522708,45.0612727 C42.8105964,45.0699028 42.7690356,45.0788736 42.7272477,45.0872766 C42.6176679,45.1093061 42.507861,45.1302001 42.397827,45.1506398 C42.3633065,45.1569988 42.3290131,45.1639256 42.2944927,45.1700576 C42.1656087,45.1933362 42.0362704,45.2153657 41.9068187,45.2363732 C41.8913753,45.2388714 41.8759319,45.2417103 41.8604886,45.2442085 C41.5643393,45.2916741 41.2667137,45.3332349 40.9673849,45.3690045 C40.951828,45.3708214 40.9361575,45.3724111 40.920487,45.374228 C40.7897862,45.3895578 40.6588582,45.4039792 40.5277031,45.4170379 C40.4888676,45.4208988 40.4499185,45.4240783 40.411083,45.4278256 C40.3027523,45.4380454 40.194308,45.4480382 40.0856367,45.4566683 C40.0373761,45.4605292 39.9888885,45.4638222 39.9405144,45.4673424 C39.8407003,45.4747235 39.7408862,45.4818774 39.6407314,45.4878957 C39.5872474,45.4911888 39.5336498,45.4939141 39.4801658,45.496753 C39.3848938,45.5018629 39.2896218,45.5067457 39.1940092,45.5107201 C39.1371186,45.5131048 39.0801144,45.5150352 39.0231102,45.5170792 C38.9302228,45.5202587 38.837222,45.5230975 38.743994,45.5252551 C38.6851729,45.5266177 38.6262383,45.5276397 38.5673037,45.5285481 C38.4752112,45.5300243 38.3831188,45.5309328 38.2907992,45.5312734 C38.2310697,45.5315005 38.1713402,45.5316141 38.1114972,45.531387 C38.0194047,45.5310463 37.9271987,45.5301379 37.8347656,45.5288888 C37.8064906,45.5284346 37.7781021,45.5279804 37.7498271,45.5274126 C37.6302545,45.503112 37.5080702,45.4998189 37.3890655,45.5183283 C37.3844097,45.5182147 37.3798676,45.5181011 37.3752118,45.5179876 C37.3151417,45.5160572 37.2550715,45.5142403 37.1947742,45.5117421 C37.0995023,45.5078813 37.0040032,45.5032256 36.9085041,45.4983427 C36.8505915,45.4953903 36.7927924,45.4927786 36.7347662,45.4893719 C36.6344979,45.4835807 36.5338889,45.4766539 36.4332799,45.4696135 C36.3795688,45.4658662 36.3259712,45.4625732 36.2721465,45.4584852 C36.1601821,45.4499686 36.047877,45.440203 35.9355719,45.4302102 C35.8928755,45.4264629 35.8504063,45.4231699 35.8077099,45.4191955 C35.4965714,45.3901256 35.1838432,45.355378 34.8695252,45.3150663 C34.8222867,45.3090479 34.774821,45.3021211 34.7274689,45.2957621 C34.6182298,45.2812271 34.5089907,45.2664651 34.3994109,45.2505675 C34.3386594,45.2417103 34.2777944,45.2320582 34.2169293,45.2227467 C34.1201812,45.2080982 34.023433,45.1933362 33.9264577,45.1776657 C33.8604827,45.1669916 33.7942806,45.1555226 33.7283057,45.1442808 C33.6358726,45.1286103 33.543553,45.1129398 33.4508928,45.0963609 C33.3819654,45.0839835 33.3129245,45.0710383 33.2438835,45.0582067 C33.1536079,45.0414007 33.0632188,45.0244811 32.9727161,45.0067667 C32.955683,45.0034736 32.9385363,44.9998399 32.9215032,44.9965468 C32.862455,44.979173 32.8022713,44.9669091 32.7412927,44.960323 C32.6582846,44.9434034 32.5752765,44.9264838 32.4921548,44.9087694 C32.4200479,44.8935531 32.347941,44.8778827 32.2757205,44.8620986 C32.1865805,44.8425673 32.0973269,44.8225818 32.0080733,44.8022556 C31.9355122,44.7856767 31.8629511,44.7689842 31.7901628,44.7518375 C31.700455,44.7307164 31.6106337,44.7090276 31.5206988,44.6871116 C31.4482512,44.6693972 31.3758036,44.6516827 31.3031289,44.6334005 C31.2114907,44.610349 31.1196254,44.5866162 31.0276465,44.5626562 C30.9566751,44.5442605 30.8858173,44.5258647 30.8147324,44.5069011 C30.7198011,44.4815786 30.6245291,44.4553475 30.5293707,44.429003 C30.4606705,44.4100394 30.3919702,44.391303 30.3231563,44.3718852 C30.2227744,44.3434967 30.1220519,44.3140861 30.0214429,44.2846756 C29.9576254,44.2660527 29.8939215,44.247884 29.8299905,44.2288069 C29.7159821,44.1948542 29.6016331,44.1596524 29.487284,44.1243371 C29.4362982,44.1085531 29.3854259,44.0934504 29.3343265,44.0774392 C29.1681967,44.0254314 29.0016127,43.9720609 28.8346881,43.9173278 C28.743277,43.887236 28.6533421,43.8596423 28.5647698,43.8336384 C28.54433,43.82762 28.524231,43.8226236 28.5039048,43.8168324 C28.4380433,43.7980959 28.3725226,43.7798137 28.3082509,43.7633483 C28.2689611,43.753242 28.2301256,43.7443848 28.191063,43.7349598 C28.1484802,43.7247399 28.1055567,43.7141794 28.0636552,43.7049815 C28.0105118,43.6931719 27.9579362,43.6827249 27.9053606,43.6722779 C27.8808329,43.6673951 27.8560781,43.6622851 27.8317775,43.6578565 C27.7673923,43.6458198 27.7034613,43.6351457 27.6399845,43.6251529 C27.6319222,43.6239038 27.6237463,43.6225412 27.6156839,43.6214056 C27.3238497,43.5768924 27.0413269,43.5531595 26.7694781,43.5531595 C26.2981147,43.5531595 25.8570703,43.6201565 25.4483888,43.7541504 C22.7555648,42.3979728 21.7745702,39.3779993 21.7619657,36.9521413 Z M23.6533242,52.1042438 L22.3024836,54.4426652 L19.7928226,50.0991041 L23.0008419,50.0991041 C23.091231,50.5084669 23.2101222,50.9245294 23.3570613,51.3434308 C23.3613764,51.3558082 23.365805,51.3682992 23.3702336,51.3806766 C23.3932851,51.4456296 23.4166773,51.5105826 23.4410914,51.5756491 C23.4534688,51.6088069 23.4663005,51.6418512 23.4790185,51.6748955 C23.4979821,51.7239509 23.5168321,51.7730063 23.536477,51.8221752 C23.5536236,51.8649852 23.5713381,51.9076815 23.5890525,51.9502644 C23.6027926,51.9833086 23.6157378,52.0164665 23.6298185,52.0495107 C23.6343607,52.0601848 23.639357,52.0708589 23.6438992,52.081533 C23.6470787,52.0891411 23.6500311,52.0967493 23.6533242,52.1042438 Z M31.826046,56.1221315 C28.8702305,56.0503653 26.7795845,53.8717147 25.7194426,51.7061229 C25.6686839,51.6024479 25.6204233,51.4980916 25.5737526,51.3931675 C25.5654631,51.3744311 25.5572872,51.3558082 25.5491113,51.3370718 C25.5065285,51.2396423 25.4654219,51.1418721 25.4263592,51.0437613 C25.4168207,51.0198014 25.4079635,50.9958414 25.398652,50.971768 C25.3716261,50.9021592 25.3458493,50.832437 25.3206403,50.7626012 C25.2942957,50.6891316 25.2689731,50.6157756 25.2446726,50.5424196 C25.2344527,50.5116464 25.2242328,50.4808732 25.2143536,50.4499865 C24.6396559,48.6452698 24.7118763,46.8997149 25.4432788,46.1039272 C25.6976402,45.8273092 26.0277422,45.6840038 26.387709,45.6280216 C26.3972475,45.6265454 26.4067861,45.6250692 26.4165517,45.6237065 C26.4683324,45.6163255 26.5206809,45.6107614 26.5733701,45.606787 C26.5812053,45.6062192 26.5888134,45.6054243 26.5966487,45.6049701 C26.6470667,45.601677 26.697939,45.6003144 26.7490384,45.5998602 C26.7767456,45.5996331 26.804907,45.6000873 26.833182,45.600655 C26.8573691,45.6011093 26.8815561,45.6017906 26.9057432,45.6028126 C26.9382197,45.6041752 26.9708097,45.6058785 27.0039675,45.6082632 C27.0232717,45.6096258 27.0424624,45.6114427 27.0617666,45.613146 C27.0984446,45.6163255 27.1352362,45.6196186 27.1728226,45.6240472 C27.1822476,45.6251827 27.1916726,45.6266589 27.2010976,45.6277945 C27.3990225,45.6525493 27.6080758,45.6934288 27.8273489,45.7507737 C27.8318911,45.7519092 27.8365468,45.7530448 27.841089,45.7542939 C27.8949137,45.7684881 27.9494197,45.7839315 28.0044934,45.8001697 C28.0088085,45.8014188 28.0132371,45.8025544 28.0174386,45.8038035 C28.0764868,45.8212908 28.1361027,45.8399137 28.1965136,45.8596721 C28.2052572,45.862511 28.2138874,45.8651227 28.2225175,45.8679616 C28.4130614,45.9303028 28.6031511,45.9908272 28.7927866,46.0497618 C28.8638715,46.0717914 28.9347293,46.0929124 29.0057007,46.1144877 C29.1337898,46.1534368 29.2617654,46.1921588 29.3895138,46.2295181 C29.4713864,46.253478 29.5531454,46.2767567 29.6349044,46.3000353 C29.7517517,46.3334202 29.8684854,46.3662374 29.984992,46.3981461 C30.0701576,46.4215382 30.1553233,46.4445897 30.2403753,46.4673006 C30.3544973,46.4977331 30.4683921,46.5272572 30.582287,46.5564406 C30.6668849,46.5781295 30.7514827,46.5999319 30.835967,46.6209394 C30.9542905,46.6503499 31.0723868,46.6783978 31.1903696,46.7064457 C31.2688356,46.7250686 31.3474151,46.7442592 31.4256539,46.7623143 C31.6021171,46.8028532 31.7781261,46.8418023 31.953908,46.8791616 C31.9793441,46.8846122 32.0047803,46.8902899 32.0302164,46.895627 C32.5142979,47.6558722 32.8327038,48.7079517 32.9561372,49.966927 C33.0079179,50.4947268 33.4524825,50.8892141 33.9719929,50.8892141 C34.0053779,50.8892141 34.0391035,50.8875108 34.0729426,50.8842177 C34.6346952,50.8291439 35.0454206,50.3290513 34.9903469,49.7672987 C34.9015475,48.8618177 34.7295129,48.0422971 34.4769684,47.312825 C34.5071738,47.3166859 34.5372657,47.3199789 34.5675846,47.3237262 C34.6759153,47.3374663 34.7839054,47.3498437 34.8918954,47.3622211 C34.9730866,47.3715325 35.0543914,47.3816389 35.1354691,47.3903825 C35.3155661,47.4096868 35.4953223,47.4272876 35.6745108,47.4430717 C35.7487753,47.4496578 35.822699,47.4547678 35.8967364,47.4606726 C36.0109719,47.4698705 36.1250938,47.4790684 36.2389887,47.48679 C36.3221103,47.4924678 36.4050049,47.4970099 36.4878995,47.5020063 C36.5929371,47.5082518 36.6979747,47.5142702 36.8027852,47.5192665 C36.8869289,47.5232409 36.970959,47.5267611 37.0548755,47.5299406 C37.0945059,47.5315304 37.1342499,47.5335744 37.1737667,47.534937 C38.0427969,48.2679293 39.3210763,49.9313845 39.670369,53.5008468 C39.7220362,54.0287602 40.1666008,54.4234745 40.6862248,54.4234745 C40.7194961,54.4234745 40.7531082,54.4217712 40.7869473,54.4184781 C41.3486999,54.3636314 41.7595389,53.8635388 41.7045787,53.3018998 C41.4403381,50.6012407 40.6979208,48.7540547 39.8464916,47.4928084 C39.9744671,47.4842919 40.1025562,47.4755482 40.2300776,47.4651012 C40.232008,47.4649876 40.2339384,47.4647605 40.2359824,47.4645334 C40.4431052,47.4475003 40.6493196,47.4270605 40.8550798,47.405031 C40.9111756,47.3990127 40.9671578,47.3926536 41.02314,47.3862946 C41.1955153,47.3666497 41.3675499,47.3453015 41.5390167,47.3221365 C41.577398,47.316913 41.6158929,47.3122573 41.6541606,47.3069202 C41.8604886,47.2780775 42.0661352,47.2465094 42.2712141,47.2124431 C42.3145918,47.2052892 42.3579695,47.197454 42.4013472,47.1899594 C42.5708835,47.1608895 42.7400793,47.1301163 42.9088208,47.0975263 C42.9569678,47.0882149 43.0051148,47.0792441 43.0531482,47.069592 C43.259249,47.0285989 43.4647821,46.9854483 43.6695203,46.9391182 C43.6821248,46.9362794 43.6946158,46.9330998 43.7072203,46.930261 C43.8991268,46.8865426 44.0903521,46.8399854 44.2811231,46.7916113 C44.3289294,46.779461 44.3766222,46.7671972 44.4243149,46.7548198 C44.6112251,46.7062186 44.7976811,46.6558005 44.9833422,46.6027707 C44.9994669,46.5982285 45.0155916,46.5939135 45.0317163,46.5892578 C45.2356596,46.5305503 45.438808,46.4687768 45.6412751,46.4047322 C45.6815869,46.3920142 45.7217851,46.3787283 45.7620968,46.3657831 C45.9326552,46.3109365 46.1027593,46.2540458 46.2724093,46.1953383 C46.3093144,46.1825067 46.3463331,46.1701293 46.3832382,46.1571841 C46.5846833,46.0863263 46.7855607,46.0130838 46.9856431,45.936889 C47.0058558,45.9291673 47.0260684,45.9209914 47.0462811,45.9132697 C47.225356,45.8444559 47.4038632,45.7732574 47.5818026,45.7001285 C47.6022423,45.6917255 47.6230228,45.6841174 47.6434625,45.6756008 C48.6401276,46.3736184 50.0990718,48.2346579 49.1437404,52.9739553 C49.0993407,53.1940233 49.1302275,53.4112525 49.21721,53.600888 C43.6153549,55.4359236 37.8560003,56.2663454 31.826046,56.1221315 Z M60.4820121,48.4438247 C57.4329687,50.2472923 54.3583757,51.7269033 51.2387015,52.8914014 C52.0227932,48.4464365 50.8760095,46.0219411 49.6623424,44.735145 C49.8336956,44.6461186 50.004254,44.5543668 50.1743582,44.4610252 C50.2025196,44.4455819 50.2306811,44.4295707 50.2588425,44.4140138 C50.4246316,44.3223756 50.5898529,44.2285798 50.7546201,44.1329672 C50.7939098,44.1101428 50.8333131,44.087432 50.8726029,44.0643805 C51.2514196,43.8419278 51.627284,43.6086875 52.0003095,43.3648867 C52.0415296,43.3379744 52.0826362,43.3108349 52.1238564,43.2835819 C52.2897591,43.1738886 52.4552075,43.0624919 52.6199746,42.9485971 C52.6406415,42.9342892 52.6614219,42.9204356 52.6822023,42.9060142 C52.8670685,42.7775845 53.0511399,42.6462023 53.2345299,42.512549 C53.2702995,42.4864315 53.3058419,42.4598599 53.3416115,42.4336288 C53.4940012,42.3214373 53.6459367,42.2074289 53.797418,42.0914901 C53.8355722,42.0623067 53.8738399,42.0333503 53.9118806,42.0039398 C54.0927724,41.8642682 54.2729829,41.7223254 54.4523985,41.5774303 C54.4698859,41.5633496 54.4872597,41.5487011 54.504747,41.5345068 C54.6657668,41.4038059 54.8262189,41.2706069 54.9861032,41.1357045 C55.0292538,41.0992536 55.0722908,41.0628027 55.1153278,41.0261247 C55.1698339,40.9795675 55.224567,40.9335781 55.2789594,40.8865666 C55.3719603,41.3544099 55.4212428,41.908895 55.3826344,42.5550183 C55.3490224,43.1184741 55.7784843,43.6024421 56.3419401,43.6361677 C56.3627206,43.6374167 56.3831603,43.6380981 56.4038272,43.6380981 C56.9403707,43.6380981 57.3904995,43.2196509 57.4230895,42.6769755 C57.5076874,41.2607277 57.2616155,40.1452849 56.9563818,39.336552 C57.081405,39.2134593 57.2059739,39.089231 57.3302022,38.9632994 C57.3598399,38.9333211 57.3892504,38.9026615 57.4187745,38.8724561 C57.561285,38.7271067 57.7032277,38.5798269 57.8447162,38.4308438 C57.8870719,38.386217 57.9295412,38.3415903 57.9718969,38.2966228 C58.13973,38.1182292 58.3069953,37.9382458 58.4733522,37.7547422 C58.4766453,37.7511085 58.480279,37.7473612 58.4836856,37.7436139 C58.529448,37.693423 58.5752103,37.6450489 58.6209726,37.5978103 C58.6378922,37.580323 58.6553795,37.5628357 58.6726398,37.5453483 C58.7084093,37.5093516 58.7442925,37.4741498 58.780062,37.43997 C58.7960732,37.4246402 58.8120843,37.4091968 58.8284361,37.3939806 C58.8756747,37.3500351 58.9227996,37.3073387 58.9700382,37.2666863 C58.973899,37.2632797 58.9777599,37.2597595 58.9816207,37.2563529 C59.2613047,37.0165265 59.5401937,36.8340449 59.8151084,36.7111793 C60.1952878,36.5434597 60.6009034,36.4806643 61.0083358,36.6123871 C61.6073341,36.8062241 62.1696544,37.3738815 62.617285,38.1710319 C62.6310251,38.1953325 62.6446516,38.2198602 62.658051,38.244615 C62.8487085,38.595611 63.0175635,38.988622 63.1579165,39.4126333 C63.160074,39.419333 63.1622316,39.4261463 63.1643891,39.432846 C63.1975469,39.5339092 63.2287743,39.6369028 63.2586391,39.7412591 C63.2743095,39.79656 63.2897529,39.8522016 63.304515,39.9082973 C63.3157568,39.9508802 63.3268851,39.9936901 63.3376728,40.0367271 C63.3618598,40.1348379 63.3849113,40.2336301 63.4060324,40.3338984 C63.4078493,40.3423014 63.4097797,40.3507044 63.411483,40.3591074 C63.4363514,40.4791342 63.4591758,40.6004101 63.4796155,40.7231622 C63.4799562,40.7253197 63.4806375,40.7273637 63.4809782,40.7294076 C63.5087989,40.8959916 63.5328724,41.0647331 63.551836,41.2357458 C63.8232305,43.6826113 63.1592792,46.8609929 60.4820121,48.4438247 Z M65.3232812,39.5336821 C65.1473858,38.8154519 64.9071052,38.1499108 64.6120914,37.5536378 L65.9775805,35.1926192 L68.4859924,39.5336821 L65.3232812,39.5336821 L65.3232812,39.5336821 Z" id="Shape" fill="url(#linearGradient-1)" fill-rule="nonzero"></path>
            </g>
        </g>
    </g>
</svg>