<?xml version="1.0" encoding="UTF-8"?>
<svg width="87px" height="87px" viewBox="0 0 87 87" version="1.1" xmlns="http://www.w3.org/2000/svg" xmlns:xlink="http://www.w3.org/1999/xlink">
    <!-- Generator: Sketch 54.1 (76490) - https://sketchapp.com -->
    <title>Group 7</title>
    <desc>Created with Sketch.</desc>
    <defs>
        <linearGradient x1="0%" y1="9.32244885%" x2="123.65797%" y2="93.8075687%" id="linearGradient-1">
            <stop stop-color="#FFCD2C" offset="0%"></stop>
            <stop stop-color="#FF0663" offset="100%"></stop>
        </linearGradient>
    </defs>
    <g id="Page-1" stroke="none" stroke-width="1" fill="none" fill-rule="evenodd">
        <g id="Desktop-HD-Copy" transform="translate(-595.000000, -1097.000000)">
            <g id="Group-7" transform="translate(595.000000, 1097.000000)">
                <circle id="Oval" fill="#FFF2D8" cx="43.5" cy="43.5" r="43.5"></circle>
                <path d="M40.0212696,62.627004 L40.0212881,62.627004 C42.3265509,62.6254142 44.5316983,62.2346787 46.6602295,61.451375 C55.0244721,58.3718466 60.1593211,50.0027205 59.1342256,41.118029 C58.9091908,39.1666639 58.3994791,37.3061368 57.6020397,35.5349266 C56.1532875,32.3175335 53.9858793,29.6868806 51.0940622,27.6277572 C50.8714278,27.4695696 50.690448,27.277 50.5823751,26.9955525 C50.2724588,26.1941213 49.758919,25.4860642 49.0283455,24.8263403 C48.050258,23.9431707 46.8785663,23.2775512 45.4955148,22.795154 C42.4325047,21.7270354 39.2786088,21.5875185 36.018628,22.3499679 C34.284946,22.7559671 32.7934856,23.4231089 31.5196964,24.3938006 C30.5562604,25.1278975 29.8917998,25.9289216 29.4997796,26.8732103 C29.3614054,27.2050835 29.1548364,27.4690167 28.8647708,27.6826308 C24.1211701,31.173225 21.4518127,35.7990896 20.8423512,41.6157136 C20.6339915,43.604134 20.7728677,45.6286633 21.2438671,47.6928932 C23.2349728,56.4186054 31.048383,62.6333584 40.0212696,62.627004 Z M52.4472106,26.2727968 C52.4476756,26.2739973 52.4481402,26.2751979 52.4486046,26.2763987 C52.4481397,26.2751881 52.4476746,26.2739827 52.4472093,26.2727824 Z M40.1826279,35.151792 L40.1287899,35.1528143 C37.7576128,35.1339855 35.7349742,34.7046353 33.8851178,33.7641184 C32.8593369,33.2425122 32.0115276,32.6097043 31.3296988,31.8144396 C29.4732571,29.6482521 29.5295203,26.9162782 31.4720496,24.8253142 C32.4479547,23.7742484 33.6715889,23.0219377 35.1746099,22.4748381 C37.0120292,21.8062621 38.9568943,21.5547722 41.0171266,21.6880088 C42.8261077,21.804596 44.4796247,22.2168886 45.9970331,22.9642341 C47.2235374,23.5683535 48.20198,24.3194323 48.9500097,25.2979035 C49.548664,26.0811961 49.915043,26.9345281 50.0188621,27.8668906 C50.1669672,29.1924648 49.783636,30.4149663 48.9377787,31.5183511 C48.1031752,32.6063163 46.9956743,33.4050408 45.5777638,34.0337047 C44.1779784,34.6542704 42.6731611,35.0049191 41.0545089,35.1105914 C41.0496265,35.1109113 41.0496265,35.1109113 41.0447475,35.1112287 C40.8948266,35.1209661 40.7411367,35.1287305 40.5570948,35.1364699 C40.5118789,35.1383714 40.2415123,35.1490865 40.1922004,35.1513062 L40.1826279,35.151792 Z M64.5154095,47.6753661 C64.5100742,47.6746515 64.504161,47.6738446 64.4973329,47.6729128 C64.4862462,47.671363 64.4862462,47.671363 64.4782278,47.6702172 C64.4648666,47.6683462 64.4648666,47.6683462 64.4705251,47.6690529 L64.5827155,46.6753661 L64.5827155,47.6753661 C64.5563527,47.6753661 64.5344121,47.6753661 64.5154095,47.6753661 Z M64.0404254,47.6753661 C64.0172248,47.6753661 63.9895885,47.6753661 63.9538042,47.6753661 L63.9538042,46.6753661 L64.1149361,47.662299 C64.1268115,47.6602298 64.1268115,47.6602298 64.1194853,47.6616096 C64.1087406,47.6636949 64.1087406,47.6636949 64.0886516,47.6673835 C64.0683564,47.6709152 64.0540681,47.6734016 64.0404282,47.6753661 Z M61.7743355,47.5230487 L61.7183561,46.7878906 L62.7084916,46.9280041 C62.6763172,47.1553697 62.6381382,47.3877512 62.5880311,47.6683515 L61.7743355,47.5230487 Z M73.2900586,52.0372679 C72.8791259,52.2474349 72.4246907,52.4226482 71.8797701,52.5952963 C71.0164373,52.8689499 70.1288146,53.0705003 69.2204812,53.2006031 C68.3751073,53.3221882 67.7881435,53.3968589 67.1909899,53.4526535 C66.0587928,53.5586199 64.9038958,53.5957864 63.7249436,53.5670028 C62.80646,53.5445642 62.2306687,53.5214622 61.6232074,53.4753071 C61.3273486,53.4528605 61.0265735,53.4246502 60.7173774,53.3906157 C60.123009,54.6041037 59.4196051,55.7562512 58.6167632,56.8318633 C59.6836241,57.6377896 60.9058476,58.1932116 62.2899738,58.4988299 C63.3500451,58.7329561 64.4236388,58.7743737 65.5088388,58.6240299 C68.9143057,58.1520299 71.70346,55.9907118 73.0136577,52.8083704 C73.1177414,52.5554796 73.2098554,52.2984308 73.2900586,52.0372679 Z M73.5650714,49.6986924 C73.5649961,49.6986038 73.5649207,49.6985152 73.5648453,49.6984265 L73.5652975,49.6989579 C73.5652221,49.6988694 73.5651467,49.6987809 73.5650713,49.6986923 Z M64.77001,45.6915861 C64.7703519,45.6916339 64.7707271,45.6916863 64.7711527,45.6917458 C64.7712405,45.6917192 64.7713104,45.6916981 64.7710651,45.691658 Z" id="Combined-Shape" stroke="url(#linearGradient-1)" stroke-width="2" fill-rule="nonzero"></path>
            </g>
        </g>
    </g>
</svg>