<?xml version="1.0" encoding="UTF-8"?>
<svg width="44px" height="43px" viewBox="0 0 44 43" version="1.1" xmlns="http://www.w3.org/2000/svg" xmlns:xlink="http://www.w3.org/1999/xlink">
    <!-- Generator: Sketch 54.1 (76490) - https://sketchapp.com -->
    <title>Group 3</title>
    <desc>Created with Sketch.</desc>
    <g id="Page-1" stroke="none" stroke-width="1" fill="none" fill-rule="evenodd">
        <g id="Desktop-HD-Copy" transform="translate(-1116.000000, -51.000000)">
            <g id="Group-3" transform="translate(1116.500000, 51.000000)">
                <path d="M25,25 L24.2,25 L23.9,24.7 C24.9,23.6 25.5,22.1 25.5,20.5 C25.5,16.9 22.6,14 19,14 C15.4,14 12.5,16.9 12.5,20.5 C12.5,24.1 15.4,27 19,27 C20.6,27 22.1,26.4 23.2,25.4 L23.5,25.7 L23.5,26.5 L28.5,31.5 L30,30 L25,25 L25,25 Z M19,25 C16.5,25 14.5,23 14.5,20.5 C14.5,18 16.5,16 19,16 C21.5,16 23.5,18 23.5,20.5 C23.5,23 21.5,25 19,25 L19,25 Z" id="Shape" fill="#ED1C23"></path>
                <circle id="Oval-Copy" stroke="#ED1C23" stroke-width="2" cx="21.5" cy="21.5" r="20.5"></circle>
            </g>
        </g>
    </g>
</svg>